<svg xmlns="http://www.w3.org/2000/svg" width="133.637" height="170.234" viewBox="0 0 133.637 170.234">
  <g id="Vorderrhein" transform="translate(24.003 25.128)" opacity="0.5">
    <g id="Group_40" data-name="Group 40" transform="translate(-24.003 -37)">
      <g id="Shape" transform="translate(51.076 11.872)">
        <path id="Shape-2" data-name="Shape" d="M.558,1.426a.476.476,0,0,1-.2-.044.535.535,0,0,1-.241-.249A.864.864,0,0,1,0,.693.577.577,0,0,1,.148.339,1.229,1.229,0,0,1,.789.005.168.168,0,0,1,.832,0,.161.161,0,0,1,.905.017l.006,0,.02.009a1.063,1.063,0,0,1,.5.4.589.589,0,0,1,.043.484.549.549,0,0,1-.363.366c-.042.012-.085.027-.148.051l-.044.016L.9,1.351a1.255,1.255,0,0,1-.251.068A.645.645,0,0,1,.558,1.426ZM.812.344h0l-.4.636a.214.214,0,0,0,.087.1.143.143,0,0,0,.062.012.3.3,0,0,0,.044,0,1.011,1.011,0,0,0,.186-.052l.02-.007.031-.011.007,0h0C.9,1,.961.974,1.018.958A.215.215,0,0,0,1.155.809a.262.262,0,0,0-.01-.2A.7.7,0,0,0,.812.344.869.869,0,0,0,.4.559.246.246,0,0,0,.335.712.547.547,0,0,0,.408.98Z" transform="translate(34.848 53.717)"/>
        <path id="Shape-3" data-name="Shape" d="M.557,1.426a.475.475,0,0,1-.205-.044.53.53,0,0,1-.24-.249A.87.87,0,0,1,0,.693.58.58,0,0,1,.146.339,1.231,1.231,0,0,1,.788.005.159.159,0,0,1,.829,0,.167.167,0,0,1,.9.017L.916.024.928.03a1.064,1.064,0,0,1,.5.4.59.59,0,0,1,.043.485.548.548,0,0,1-.361.365c-.042.012-.082.026-.129.043l-.02.007L.927,1.34.9,1.351a1.32,1.32,0,0,1-.252.069A.646.646,0,0,1,.557,1.426ZM.811.344A.865.865,0,0,0,.4.558.245.245,0,0,0,.333.712.548.548,0,0,0,.407.98a.213.213,0,0,0,.087.1.149.149,0,0,0,.064.012l.042,0a1.031,1.031,0,0,0,.185-.053l.025-.009h0L.835,1.02C.894,1,.957.976,1.016.959A.213.213,0,0,0,1.152.81.263.263,0,0,0,1.142.605.7.7,0,0,0,.811.344Z" transform="translate(41.463 58.246)"/>
        <path id="Shape-4" data-name="Shape" d="M.558,1.426a.476.476,0,0,1-.2-.044.534.534,0,0,1-.241-.249A.864.864,0,0,1,0,.693.569.569,0,0,1,.148.339,1.227,1.227,0,0,1,.789.005.168.168,0,0,1,.832,0,.161.161,0,0,1,.905.017L.919.024.93.029h0a1.063,1.063,0,0,1,.495.4A.587.587,0,0,1,1.47.913a.549.549,0,0,1-.362.365c-.046.013-.09.029-.148.051L.9,1.351a1.285,1.285,0,0,1-.251.068.645.645,0,0,1-.09.007ZM.813.344h0A.869.869,0,0,0,.4.559.246.246,0,0,0,.335.712.547.547,0,0,0,.408.98a.215.215,0,0,0,.087.1.143.143,0,0,0,.062.012.3.3,0,0,0,.044,0,1.011,1.011,0,0,0,.186-.052h0l.021-.008L.832,1.02l.005,0,.007,0,0,0C.9.994.961.973,1.017.957A.213.213,0,0,0,1.153.809.26.26,0,0,0,1.144.6.7.7,0,0,0,.812.344Z" transform="translate(36.648 58.4)"/>
        <path id="Shape-5" data-name="Shape" d="M.559,1.426a.475.475,0,0,1-.205-.044.532.532,0,0,1-.241-.249A.869.869,0,0,1,0,.693.577.577,0,0,1,.148.339,1.229,1.229,0,0,1,.789.005.164.164,0,0,1,.83,0,.171.171,0,0,1,.9.017L.915.023.929.03a1.063,1.063,0,0,1,.5.4A.59.59,0,0,1,1.47.912a.548.548,0,0,1-.362.365c-.045.013-.09.03-.142.048l-.006,0-.044.016L.9,1.351a1.3,1.3,0,0,1-.251.069.648.648,0,0,1-.089.007ZM.812.344h0L.409.98a.21.21,0,0,0,.087.1.143.143,0,0,0,.062.012.3.3,0,0,0,.044,0,1.011,1.011,0,0,0,.186-.052l.021-.008.007,0,.022-.008.007,0h0C.9,1,.96.975,1.017.959h0A.215.215,0,0,0,1.153.81a.264.264,0,0,0-.01-.205A.7.7,0,0,0,.812.344.869.869,0,0,0,.4.558.249.249,0,0,0,.335.712.547.547,0,0,0,.408.98Z" transform="translate(28.93 60.597)"/>
        <path id="Shape-6" data-name="Shape" d="M.558,1.425a.476.476,0,0,1-.2-.044.534.534,0,0,1-.241-.249A.864.864,0,0,1,0,.693.577.577,0,0,1,.148.339,1.229,1.229,0,0,1,.789.005.164.164,0,0,1,.83,0,.171.171,0,0,1,.9.017l.005,0,.02.01a1.063,1.063,0,0,1,.5.4A.589.589,0,0,1,1.47.912a.549.549,0,0,1-.361.365c-.045.013-.09.03-.142.048l-.006,0-.044.016L.9,1.351a1.255,1.255,0,0,1-.251.068.645.645,0,0,1-.09.007ZM.812.344h0L.409.98a.212.212,0,0,0,.087.1.143.143,0,0,0,.062.012.3.3,0,0,0,.044,0,1.011,1.011,0,0,0,.186-.052l.05-.018C.892,1,.956.974,1.017.958h0A.215.215,0,0,0,1.153.809a.263.263,0,0,0-.01-.2A.7.7,0,0,0,.812.344Zm0,0A.869.869,0,0,0,.4.558.246.246,0,0,0,.335.712.547.547,0,0,0,.408.98Z" transform="translate(23.113 62.785)"/>
        <path id="Shape-7" data-name="Shape" d="M.557,1.426a.469.469,0,0,1-.2-.044.532.532,0,0,1-.241-.249A.869.869,0,0,1,0,.693.573.573,0,0,1,.148.339,1.227,1.227,0,0,1,.789.005.164.164,0,0,1,.83,0,.171.171,0,0,1,.9.017l.005,0,.02.01a1.058,1.058,0,0,1,.5.4A.587.587,0,0,1,1.47.912a.549.549,0,0,1-.362.365c-.045.013-.09.03-.142.048l-.006,0L.9,1.351a1.277,1.277,0,0,1-.251.068.627.627,0,0,1-.091.007ZM.812.344h0L.409.98a.21.21,0,0,0,.087.1.143.143,0,0,0,.062.012.3.3,0,0,0,.044,0,1.011,1.011,0,0,0,.186-.052l.04-.014.01,0C.892,1,.955.974,1.016.958h0A.213.213,0,0,0,1.153.809.262.262,0,0,0,1.143.6.7.7,0,0,0,.812.344.869.869,0,0,0,.4.558.246.246,0,0,0,.335.712.547.547,0,0,0,.408.98Z" transform="translate(24.691 49.968)"/>
        <path id="Shape-8" data-name="Shape" d="M.559,1.426a.472.472,0,0,1-.205-.044.529.529,0,0,1-.241-.249A.864.864,0,0,1,0,.693.57.57,0,0,1,.148.339,1.224,1.224,0,0,1,.789,0,.173.173,0,0,1,.83,0,.168.168,0,0,1,.9.017L.929.029a1.056,1.056,0,0,1,.5.4A.587.587,0,0,1,1.47.913a.55.55,0,0,1-.362.365c-.043.012-.086.028-.132.044l-.016.006L.9,1.35a1.334,1.334,0,0,1-.251.069.647.647,0,0,1-.089.007ZM.812.344A.864.864,0,0,0,.4.558.246.246,0,0,0,.335.711.543.543,0,0,0,.408.98a.216.216,0,0,0,.087.1.143.143,0,0,0,.061.012l.044,0a.929.929,0,0,0,.186-.053l.05-.018.007,0h0C.9,1,.96.974,1.017.958A.213.213,0,0,0,1.153.809.263.263,0,0,0,1.144.6.7.7,0,0,0,.812.344Z" transform="translate(24.406 44.136)"/>
        <path id="Shape-9" data-name="Shape" d="M.558,1.426a.476.476,0,0,1-.2-.044.534.534,0,0,1-.241-.249A.864.864,0,0,1,0,.693.569.569,0,0,1,.148.339,1.227,1.227,0,0,1,.789.005.168.168,0,0,1,.832,0,.161.161,0,0,1,.905.017L.919.024.93.029h0a1.063,1.063,0,0,1,.495.4A.587.587,0,0,1,1.47.913a.549.549,0,0,1-.362.365c-.046.013-.09.029-.148.051L.9,1.351a1.285,1.285,0,0,1-.251.068.645.645,0,0,1-.09.007ZM.813.344h0A.869.869,0,0,0,.4.559.243.243,0,0,0,.335.712.547.547,0,0,0,.408.98a.215.215,0,0,0,.087.1.143.143,0,0,0,.062.012.3.3,0,0,0,.044,0,1.011,1.011,0,0,0,.186-.052h0l.021-.008L.832,1.02l.005,0,.007,0,0,0C.9.994.961.973,1.017.957A.213.213,0,0,0,1.153.809.26.26,0,0,0,1.144.6.7.7,0,0,0,.812.344Z" transform="translate(25.987 31.954)"/>
        <path id="Shape-10" data-name="Shape" d="M.557,1.426a.472.472,0,0,1-.205-.044.53.53,0,0,1-.24-.249A.872.872,0,0,1,0,.693.581.581,0,0,1,.147.339,1.229,1.229,0,0,1,.788,0,.173.173,0,0,1,.829,0,.168.168,0,0,1,.9.017L.919.026l.008,0a1.058,1.058,0,0,1,.5.4h0a.585.585,0,0,1,.042.483.547.547,0,0,1-.361.365c-.041.011-.082.026-.126.042L.96,1.328l-.031.011L.9,1.351a1.328,1.328,0,0,1-.252.069.647.647,0,0,1-.088.007ZM.811.344A.866.866,0,0,0,.4.558.247.247,0,0,0,.334.711.541.541,0,0,0,.408.98a.212.212,0,0,0,.087.1.137.137,0,0,0,.063.012l.043,0a.922.922,0,0,0,.185-.053l.051-.018.007,0h0C.9,1,.959.974,1.017.958A.213.213,0,0,0,1.153.809.263.263,0,0,0,1.143.6.707.707,0,0,0,.811.344Z" transform="translate(21.201 37.179)"/>
        <path id="Shape-11" data-name="Shape" d="M.557,1.426a.471.471,0,0,1-.205-.044.53.53,0,0,1-.24-.249A.865.865,0,0,1,0,.693.576.576,0,0,1,.147.339,1.231,1.231,0,0,1,.788.005.163.163,0,0,1,.83,0,.16.16,0,0,1,.9.017L.92.026l.008,0,0,0a1.06,1.06,0,0,1,.494.4.588.588,0,0,1,.043.484.548.548,0,0,1-.362.365c-.044.013-.088.029-.138.047l-.009,0L.928,1.34.9,1.35a1.279,1.279,0,0,1-.252.068.64.64,0,0,1-.09.007ZM.81.344A.86.86,0,0,0,.4.559.237.237,0,0,0,.334.711.54.54,0,0,0,.407.979a.222.222,0,0,0,.087.1.144.144,0,0,0,.062.012.307.307,0,0,0,.044,0,.963.963,0,0,0,.185-.052L.8,1.029l.009,0,.02-.008C.893,1,.956.974,1.015.957A.213.213,0,0,0,1.151.808.263.263,0,0,0,1.141.6.706.706,0,0,0,.81.344Z" transform="translate(25.574 25.742)"/>
        <path id="Shape-12" data-name="Shape" d="M.556,1.426a.476.476,0,0,1-.2-.044.533.533,0,0,1-.24-.249A.865.865,0,0,1,0,.693.576.576,0,0,1,.146.339,1.231,1.231,0,0,1,.788.005.159.159,0,0,1,.828,0,.167.167,0,0,1,.9.017L.928.03a1.064,1.064,0,0,1,.5.4.587.587,0,0,1,.043.484.547.547,0,0,1-.361.365c-.04.012-.079.026-.125.043l-.023.008L.928,1.34.9,1.351a1.272,1.272,0,0,1-.252.068A.618.618,0,0,1,.556,1.426ZM.81.344h0L.407.98a.213.213,0,0,0,.087.1.144.144,0,0,0,.062.012.3.3,0,0,0,.044,0,.96.96,0,0,0,.186-.052l.05-.018C.886,1,.954.975,1.016.958h0A.213.213,0,0,0,1.152.809.262.262,0,0,0,1.142.6.7.7,0,0,0,.81.344Zm0,0A.865.865,0,0,0,.4.558.242.242,0,0,0,.333.712.551.551,0,0,0,.407.98Z" transform="translate(30.375 23.053)"/>
        <path id="Shape-13" data-name="Shape" d="M.557,1.426a.473.473,0,0,1-.2-.044.531.531,0,0,1-.241-.249A.866.866,0,0,1,0,.693.579.579,0,0,1,.146.339,1.231,1.231,0,0,1,.788.005.164.164,0,0,1,.829,0,.167.167,0,0,1,.9.017L.915.023.928.03a1.066,1.066,0,0,1,.5.4h0a.588.588,0,0,1,.042.483.547.547,0,0,1-.361.366c-.043.012-.085.027-.133.045l-.015.005L.9,1.351a1.294,1.294,0,0,1-.252.069.64.64,0,0,1-.09.007ZM.81.344h0L.407.98a.215.215,0,0,0,.087.1.145.145,0,0,0,.063.012l.043,0a.974.974,0,0,0,.185-.052l.05-.018C.895,1,.957.974,1.016.957A.213.213,0,0,0,1.152.809.262.262,0,0,0,1.143.6.7.7,0,0,0,.81.344Zm0,0A.87.87,0,0,0,.4.558.238.238,0,0,0,.334.712.541.541,0,0,0,.407.98Z" transform="translate(38.34 19.712)"/>
        <path id="Shape-14" data-name="Shape" d="M.558,1.426a.473.473,0,0,1-.206-.044.53.53,0,0,1-.24-.249A.864.864,0,0,1,0,.693.573.573,0,0,1,.148.339,1.228,1.228,0,0,1,.789,0,.173.173,0,0,1,.83,0,.168.168,0,0,1,.9.017l.02.01.006,0a1.056,1.056,0,0,1,.5.4A.585.585,0,0,1,1.47.913a.548.548,0,0,1-.361.365c-.042.012-.083.027-.128.043l-.02.007-.014.005h0L.9,1.35a1.293,1.293,0,0,1-.252.069A.642.642,0,0,1,.558,1.426ZM.812.344A.864.864,0,0,0,.4.558.246.246,0,0,0,.335.711.543.543,0,0,0,.408.98a.218.218,0,0,0,.087.1.144.144,0,0,0,.062.012.307.307,0,0,0,.044,0,.922.922,0,0,0,.185-.053l.051-.018.007,0h0C.9,1,.96.974,1.017.958A.213.213,0,0,0,1.153.809.263.263,0,0,0,1.144.6.706.706,0,0,0,.812.344Z" transform="translate(39.015 51.032)"/>
        <path id="Shape-15" data-name="Shape" d="M.578,1.331a.921.921,0,0,1-.11-.006.507.507,0,0,1-.274-.113A.531.531,0,0,1,.025.91.856.856,0,0,1,.032.457a.575.575,0,0,1,.233-.3A1.194,1.194,0,0,1,.939,0H.97a.162.162,0,0,1,.108.042L1.1.055h0a1.064,1.064,0,0,1,.378.514v0a.587.587,0,0,1-.084.477.549.549,0,0,1-.444.259c-.053,0-.106.006-.156.011H.788l-.059,0C.688,1.327.634,1.331.578,1.331Zm.327-1a.863.863,0,0,0-.455.1.244.244,0,0,0-.1.131.543.543,0,0,0,0,.278A.223.223,0,0,0,.41.959a.192.192,0,0,0,.1.036.592.592,0,0,0,.07,0C.612,1,.651,1,.7.992H.727l.027,0h0C.809.984.88.978.945.976a.212.212,0,0,0,.17-.11.263.263,0,0,0,.044-.2A.705.705,0,0,0,.906.329Z" transform="translate(35.387 48.869)"/>
        <path id="Shape-16" data-name="Shape" d="M.578,1.331a.922.922,0,0,1-.11-.006.51.51,0,0,1-.274-.113A.534.534,0,0,1,.026.91.867.867,0,0,1,.033.457a.573.573,0,0,1,.232-.3A1.2,1.2,0,0,1,.939,0H.971a.162.162,0,0,1,.108.042l.01.009L1.1.055l0,0a1.064,1.064,0,0,1,.375.512.587.587,0,0,1-.084.479.546.546,0,0,1-.443.26c-.05,0-.1.006-.156.011h0l-.062,0C.688,1.327.634,1.331.578,1.331Zm.328-1a.863.863,0,0,0-.455.1.24.24,0,0,0-.1.131.54.54,0,0,0,0,.279A.216.216,0,0,0,.411.958a.191.191,0,0,0,.1.036A.608.608,0,0,0,.58,1C.614,1,.653,1,.7.991H.718l.038,0h0C.82.981.885.975.946.974A.212.212,0,0,0,1.115.866a.261.261,0,0,0,.044-.2A.7.7,0,0,0,.906.329Z" transform="translate(40.139 46.255)"/>
        <path id="Shape-17" data-name="Shape" d="M.839,1.458A.521.521,0,0,1,.47,1.314C.44,1.284.406,1.256.37,1.226L.353,1.211.3,1.168A1.28,1.28,0,0,1,.117.985.517.517,0,0,1,0,.712.534.534,0,0,1,.1.378.863.863,0,0,1,.423.063.568.568,0,0,1,.682,0,.615.615,0,0,1,.8.012,1.233,1.233,0,0,1,1.412.4a.168.168,0,0,1,.047.105c0,.009,0,.02,0,.029a1.063,1.063,0,0,1-.1.632h0a.583.583,0,0,1-.4.278.618.618,0,0,1-.128.014ZM.682.334A.237.237,0,0,0,.573.36a.55.55,0,0,0-.2.2A.214.214,0,0,0,.335.683a.185.185,0,0,0,.045.1A.985.985,0,0,0,.518.914L.529.922.535.929l.024.02.02.017C.62,1,.663,1.038.7,1.075a.191.191,0,0,0,.136.051A.285.285,0,0,0,.9,1.119a.258.258,0,0,0,.173-.111A.7.7,0,0,0,1.131.592.866.866,0,0,0,.738.339.273.273,0,0,0,.682.334Z" transform="translate(31.493 42.599)"/>
        <path id="Shape-18" data-name="Shape" d="M.62,1.5a.624.624,0,0,1-.336-.1A.55.55,0,0,1,.024.951C.023.9.019.857.013.8.011.774.009.753.008.73a1.3,1.3,0,0,1,0-.261A.507.507,0,0,1,.119.195a.529.529,0,0,1,.3-.169A1.1,1.1,0,0,1,.651,0,.712.712,0,0,1,.874.034a.573.573,0,0,1,.3.233,1.231,1.231,0,0,1,.157.706.17.17,0,0,1-.041.108L1.274,1.1h0a1.063,1.063,0,0,1-.513.378h0A.494.494,0,0,1,.62,1.5ZM.65.333a.745.745,0,0,0-.158.02A.216.216,0,0,0,.374.411a.193.193,0,0,0-.036.1A1,1,0,0,0,.34.7V.73a.245.245,0,0,0,0,.026v0c0,.052.011.123.013.188a.212.212,0,0,0,.108.17.3.3,0,0,0,.156.05.162.162,0,0,0,.044-.006A.7.7,0,0,0,1,.908.865.865,0,0,0,.9.452.244.244,0,0,0,.771.35.387.387,0,0,0,.65.333Z" transform="translate(37.005 33.567)"/>
        <path id="Shape-19" data-name="Shape" d="M.736,1.469a.9.9,0,0,1-.444-.1h0a.585.585,0,0,1-.277-.4A.547.547,0,0,1,.146.47C.179.435.21.4.247.352L.289.3A1.3,1.3,0,0,1,.473.116.5.5,0,0,1,.747,0,.291.291,0,0,1,.784,0a.546.546,0,0,1,.3.1A.868.868,0,0,1,1.4.422.581.581,0,0,1,1.446.8a1.23,1.23,0,0,1-.389.61.167.167,0,0,1-.106.047l-.028,0C.866,1.464.8,1.469.736,1.469ZM.783.333H.774a.183.183,0,0,0-.1.045A.917.917,0,0,0,.544.517L.524.539.515.552l0,.006,0,0C.469.606.428.657.384.7A.214.214,0,0,0,.341.9a.262.262,0,0,0,.111.173.546.546,0,0,0,.281.064c.045,0,.094,0,.136-.005A.874.874,0,0,0,1.119.738.242.242,0,0,0,1.1.573a.542.542,0,0,0-.2-.2A.225.225,0,0,0,.783.333Z" transform="translate(41.868 29.735)"/>
        <path id="Shape-20" data-name="Shape" d="M.561,1.336H.529a.169.169,0,0,1-.108-.041l0,0L.4,1.275h0A1.064,1.064,0,0,1,.022.76.588.588,0,0,1,.106.282.547.547,0,0,1,.549.024C.6.023.647.019.705.013L.77.007C.818,0,.869,0,.921,0a.866.866,0,0,1,.11.006.506.506,0,0,1,.275.112.532.532,0,0,1,.168.3.865.865,0,0,1-.007.453.573.573,0,0,1-.234.3,1.2,1.2,0,0,1-.674.157Zm.361-1C.887.333.849.335.8.34h0l-.05,0h0C.681.349.616.355.555.355a.215.215,0,0,0-.17.109.261.261,0,0,0-.044.2A.707.707,0,0,0,.593,1,.871.871,0,0,0,1.048.9a.241.241,0,0,0,.1-.13.54.54,0,0,0,0-.279A.21.21,0,0,0,1.089.373a.183.183,0,0,0-.1-.037.542.542,0,0,0-.069,0Z" transform="translate(49.729 32.534)"/>
        <path id="Shape-21" data-name="Shape" d="M.78,1.458a.626.626,0,0,1-.119-.012,1.237,1.237,0,0,1-.61-.389A.168.168,0,0,1,0,.951Q0,.943,0,.935V.923A1.063,1.063,0,0,1,.1.292.583.583,0,0,1,.5.014.621.621,0,0,1,.626,0,.519.519,0,0,1,.994.144c.03.029.063.057.1.086l.02.016L1.12.254l.042.034a1.34,1.34,0,0,1,.185.184.508.508,0,0,1,.115.274.538.538,0,0,1-.1.333.861.861,0,0,1-.325.315.575.575,0,0,1-.261.062ZM.625.333a.3.3,0,0,0-.06.007A.262.262,0,0,0,.392.45.706.706,0,0,0,.333.868a.871.871,0,0,0,.393.251.286.286,0,0,0,.055.006A.241.241,0,0,0,.891,1.1a.554.554,0,0,0,.2-.2A.213.213,0,0,0,1.129.774a.185.185,0,0,0-.045-.1A.984.984,0,0,0,.946.543L.924.524l0,0L.9.509.894.5l0,0C.85.462.8.423.761.383A.19.19,0,0,0,.625.333Z" transform="translate(53.468 39.927)"/>
        <path id="Shape-22" data-name="Shape" d="M.678,1.5a.726.726,0,0,1-.224-.033.573.573,0,0,1-.3-.233A1.229,1.229,0,0,1-.006.528.16.16,0,0,1,.035.42l0,0A.209.209,0,0,1,.054.4,1.066,1.066,0,0,1,.567.02.507.507,0,0,1,.708,0a.624.624,0,0,1,.336.1A.549.549,0,0,1,1.3.548c0,.05.006.1.011.156v.01c0,.018,0,.036,0,.056a1.305,1.305,0,0,1,0,.26.507.507,0,0,1-.113.275.537.537,0,0,1-.3.169A1.1,1.1,0,0,1,.678,1.5ZM.708.333A.158.158,0,0,0,.663.339.707.707,0,0,0,.327.593a.858.858,0,0,0,.1.455.244.244,0,0,0,.131.1.39.39,0,0,0,.119.017.768.768,0,0,0,.158-.02.214.214,0,0,0,.119-.059.187.187,0,0,0,.038-.1A.979.979,0,0,0,.989.8c0-.012,0-.032,0-.053V.734C.98.683.974.614.972.552A.213.213,0,0,0,.865.382.294.294,0,0,0,.708.333Z" transform="translate(50.806 47.795)"/>
        <path id="Shape-23" data-name="Shape" d="M.674,1.469a.543.543,0,0,1-.3-.1.857.857,0,0,1-.315-.325A.571.571,0,0,1,.011.667,1.228,1.228,0,0,1,.4.057.169.169,0,0,1,.505.01l.028,0C.595,0,.658,0,.722,0a.885.885,0,0,1,.442.1h0a.586.586,0,0,1,.279.4.55.55,0,0,1-.131.5c-.036.037-.07.079-.1.119l-.02.023-.023.027a1.277,1.277,0,0,1-.183.185.514.514,0,0,1-.274.115ZM.725.333C.68.333.631.336.589.338A.864.864,0,0,0,.338.731.247.247,0,0,0,.359.9a.546.546,0,0,0,.2.2.231.231,0,0,0,.117.043H.683a.189.189,0,0,0,.1-.045A1.014,1.014,0,0,0,.913.952L.93.932.947.912.955.9C.991.86,1.032.811,1.073.769a.213.213,0,0,0,.044-.2A.259.259,0,0,0,1.006.4.544.544,0,0,0,.726.335Z" transform="translate(43.291 51.53)"/>
        <path id="Shape-24" data-name="Shape" d="M.819,1.473A.535.535,0,0,1,.4,1.288C.372,1.251.339,1.217.3,1.173L.28,1.156h0L.252,1.127a1.285,1.285,0,0,1-.165-.2A.512.512,0,0,1,0,.639.531.531,0,0,1,.13.318.862.862,0,0,1,.486.038.576.576,0,0,1,.692,0,.6.6,0,0,1,.87.027a1.232,1.232,0,0,1,.564.451.169.169,0,0,1,.036.11Q1.47.6,1.47.6V.616a1.073,1.073,0,0,1-.161.618h0a.587.587,0,0,1-.424.235.629.629,0,0,1-.065,0ZM.691.334A.238.238,0,0,0,.6.35.549.549,0,0,0,.389.527.209.209,0,0,0,.333.648a.188.188,0,0,0,.035.1A.944.944,0,0,0,.492.9L.515.92.528.934.534.94l0,0c.04.04.083.086.12.13a.2.2,0,0,0,.158.066.211.211,0,0,0,.031,0,.261.261,0,0,0,.184-.092.7.7,0,0,0,.1-.409A.868.868,0,0,0,.771.346.268.268,0,0,0,.691.334Z" transform="translate(37.107 42.348)"/>
        <path id="Shape-25" data-name="Shape" d="M.585,1.493A.6.6,0,0,1,.166,1.3.542.542,0,0,1,.014.812C.022.771.029.726.035.679l0-.021c0-.013,0-.026.006-.04s0-.018,0-.025A1.283,1.283,0,0,1,.1.338.508.508,0,0,1,.277.1.52.52,0,0,1,.6,0H.608a.859.859,0,0,1,.44.109.575.575,0,0,1,.244.3,1.233,1.233,0,0,1-.006.723.168.168,0,0,1-.065.1l-.007.005L1.2,1.239h0a1.068,1.068,0,0,1-.584.253ZM.6.333a.2.2,0,0,0-.122.03A.188.188,0,0,0,.418.451.949.949,0,0,0,.378.64C.375.66.372.677.371.693l0,.02V.719C.361.77.352.829.341.882a.213.213,0,0,0,.067.19.269.269,0,0,0,.179.088H.593A.7.7,0,0,0,.976.988.87.87,0,0,0,.981.522.243.243,0,0,0,.876.393.548.548,0,0,0,.605.332Z" transform="translate(35.863 37.757)"/>
        <path id="Shape-26" data-name="Shape" d="M.773,1.463a.165.165,0,0,1-.044-.006l-.015,0L.7,1.45a1.068,1.068,0,0,1-.565-.3A.588.588,0,0,1,0,.688.549.549,0,0,1,.288.26C.33.238.371.214.418.185l.005,0L.48.148A1.3,1.3,0,0,1,.713.033.567.567,0,0,1,.9,0,.455.455,0,0,1,1.01.014a.534.534,0,0,1,.284.2.866.866,0,0,1,.192.41A.573.573,0,0,1,1.409,1a1.222,1.222,0,0,1-.566.451.168.168,0,0,1-.071.015ZM.9.332A.237.237,0,0,0,.822.347.916.916,0,0,0,.65.435L.638.442h0L.605.462C.554.493.495.528.439.556A.213.213,0,0,0,.334.728a.257.257,0,0,0,.048.2.7.7,0,0,0,.374.192A.874.874,0,0,0,1.122.83.24.24,0,0,0,1.155.668.541.541,0,0,0,1.032.418a.218.218,0,0,0-.1-.082A.115.115,0,0,0,.9.333Z" transform="translate(42.676 35.499)"/>
        <path id="Shape-27" data-name="Shape" d="M.825,1.393a1.375,1.375,0,0,1-.6-.175.166.166,0,0,1-.079-.085L.136,1.12.131,1.107A1.065,1.065,0,0,1,.016.479.59.59,0,0,1,.3.086.59.59,0,0,1,.6,0,.5.5,0,0,1,.813.047C.85.065.889.08.93.1L.959.107l.012,0L1.02.13a1.331,1.331,0,0,1,.235.113.505.505,0,0,1,.2.222A.527.527,0,0,1,1.47.811a.866.866,0,0,1-.2.4.577.577,0,0,1-.342.171.71.71,0,0,1-.1.007ZM.6.334A.248.248,0,0,0,.472.372.258.258,0,0,0,.345.533.7.7,0,0,0,.424.947a1,1,0,0,0,.4.113.382.382,0,0,0,.053,0A.244.244,0,0,0,1.026.983a.555.555,0,0,0,.12-.252.21.21,0,0,0,0-.133A.184.184,0,0,0,1.074.523.945.945,0,0,0,.9.44L.881.433.867.428.849.421.84.418h0C.786.4.726.375.673.35A.17.17,0,0,0,.6.334Z" transform="translate(46.9 35.077)"/>
        <path id="Shape-28" data-name="Shape" d="M.72,1.5a.442.442,0,0,1-.057,0,.571.571,0,0,1-.348-.158A1.229,1.229,0,0,1,0,.689.167.167,0,0,1,.02.575L.026.563A.108.108,0,0,1,.033.55,1.076,1.076,0,0,1,.449.065.534.534,0,0,1,.711,0a.648.648,0,0,1,.223.04.547.547,0,0,1,.352.375c.012.048.027.094.045.15L1.341.6l.009.029A1.329,1.329,0,0,1,1.41.88a.511.511,0,0,1-.048.293.532.532,0,0,1-.257.232.91.91,0,0,1-.385.1ZM.712.334a.206.206,0,0,0-.1.022.7.7,0,0,0-.27.322.871.871,0,0,0,.2.422.241.241,0,0,0,.15.069H.719A.6.6,0,0,0,.964,1.1a.215.215,0,0,0,.1-.084.188.188,0,0,0,.012-.1A.994.994,0,0,0,1.034.727L1.028.708l0-.011L1.018.678l0-.013v0C1,.609.976.55.963.5h0A.212.212,0,0,0,.82.354.313.313,0,0,0,.712.334Z" transform="translate(50.366 43.348)"/>
        <path id="Shape-29" data-name="Shape" d="M.7,1.475a.575.575,0,0,1-.259-.068.866.866,0,0,1-.347-.291A.576.576,0,0,1,0,.744,1.235,1.235,0,0,1,.324.1.169.169,0,0,1,.424.04l.028,0A1.78,1.78,0,0,1,.759,0a.857.857,0,0,1,.33.064.588.588,0,0,1,.318.367A.545.545,0,0,1,1.33.939c-.027.035-.052.071-.08.113l-.01.015L1.2,1.122a1.265,1.265,0,0,1-.163.2.5.5,0,0,1-.26.143A.449.449,0,0,1,.7,1.475ZM.762.333A1.346,1.346,0,0,0,.543.357.868.868,0,0,0,.334.774.248.248,0,0,0,.372.936a.554.554,0,0,0,.218.174A.252.252,0,0,0,.7,1.142l.022,0A.189.189,0,0,0,.81,1.085,1.016,1.016,0,0,0,.929.934l0-.006L.959.889c.032-.049.07-.1.11-.156a.212.212,0,0,0,.023-.2A.261.261,0,0,0,.963.373.509.509,0,0,0,.762.333Z" transform="translate(46.744 48.221)"/>
        <path id="Shape-30" data-name="Shape" d="M.7,1.475a.573.573,0,0,1-.258-.068.865.865,0,0,1-.347-.291A.579.579,0,0,1,0,.745,1.23,1.23,0,0,1,.325.1.166.166,0,0,1,.425.04l.014,0,.014,0h0A1.767,1.767,0,0,1,.761,0,.852.852,0,0,1,1.09.064a.587.587,0,0,1,.319.367.55.55,0,0,1-.078.508c-.032.042-.062.086-.09.128L1.2,1.121a1.379,1.379,0,0,1-.163.2.509.509,0,0,1-.261.142A.455.455,0,0,1,.7,1.475ZM.762.333A1.35,1.35,0,0,0,.543.357.87.87,0,0,0,.334.775a.244.244,0,0,0,.04.161.539.539,0,0,0,.218.174A.254.254,0,0,0,.7,1.141l.02,0A.183.183,0,0,0,.81,1.085.972.972,0,0,0,.929.933L.942.913.958.89.976.863c.029-.044.059-.089.092-.13a.213.213,0,0,0,.023-.2A.259.259,0,0,0,.963.373a.509.509,0,0,0-.2-.04Z" transform="translate(41.889 40.765)"/>
        <path id="Shape-31" data-name="Shape" d="M.7,1.475a.573.573,0,0,1-.258-.068.858.858,0,0,1-.347-.291A.575.575,0,0,1,0,.745,1.222,1.222,0,0,1,.324.1.166.166,0,0,1,.424.04l.014,0,.014,0h0A1.762,1.762,0,0,1,.76,0a.85.85,0,0,1,.329.064.587.587,0,0,1,.319.367A.549.549,0,0,1,1.33.939c-.03.04-.058.08-.09.128l-.015.023L1.2,1.121a1.314,1.314,0,0,1-.164.2.507.507,0,0,1-.26.143A.455.455,0,0,1,.7,1.475ZM.762.333A1.346,1.346,0,0,0,.542.357.868.868,0,0,0,.334.775.241.241,0,0,0,.372.936a.546.546,0,0,0,.218.174.253.253,0,0,0,.11.032l.02,0a.185.185,0,0,0,.09-.055A1,1,0,0,0,.929.933L.936.923.941.915h0l0-.006L.958.89.97.873l0-.005c.029-.043.062-.091.1-.133a.215.215,0,0,0,.023-.2A.261.261,0,0,0,.963.373a.514.514,0,0,0-.2-.04Z" transform="translate(45.44 41.253)"/>
        <path id="Shape-32" data-name="Shape" d="M.906,1.361a.5.5,0,0,1-.148-.023C.71,1.325.657,1.312.607,1.3L.584,1.3l-.041-.01a1.317,1.317,0,0,1-.249-.079.509.509,0,0,1-.226-.192A.534.534,0,0,1,0,.674.865.865,0,0,1,.149.246.575.575,0,0,1,.464.028.789.789,0,0,1,.68,0a1.584,1.584,0,0,1,.5.1.169.169,0,0,1,.09.073l.014.024a1.062,1.062,0,0,1,.2.606h0a.587.587,0,0,1-.228.428.568.568,0,0,1-.355.132ZM.8.491h0L.334.708A.212.212,0,0,0,.353.84.188.188,0,0,0,.436.9,1,1,0,0,0,.62.962L.655.97H.66l.012,0C.729.987.8,1,.857,1.021a.162.162,0,0,0,.048.007A.236.236,0,0,0,1.052.97a.261.261,0,0,0,.1-.178.708.708,0,0,0-.136-.4A1.2,1.2,0,0,0,.68.333.46.46,0,0,0,.555.349.247.247,0,0,0,.418.442.547.547,0,0,0,.334.707Z" transform="translate(29.526 48.433)"/>
        <path id="Shape-33" data-name="Shape" d="M.822,1.47a.531.531,0,0,1-.409-.178C.38,1.254.343,1.217.305,1.18L.258,1.133a1.269,1.269,0,0,1-.168-.2A.5.5,0,0,1,0,.651.535.535,0,0,1,.124.327.865.865,0,0,1,.475.042.573.573,0,0,1,.689,0,.6.6,0,0,1,.857.025a1.23,1.23,0,0,1,.573.44.167.167,0,0,1,.038.109V.6a1.066,1.066,0,0,1-.15.619h0A.586.586,0,0,1,.9,1.466.635.635,0,0,1,.822,1.47ZM.689.333A.232.232,0,0,0,.6.351a.546.546,0,0,0-.212.18A.213.213,0,0,0,.333.653a.189.189,0,0,0,.037.1A.966.966,0,0,0,.5.9L.533.936l0,0,0,0c.041.04.086.086.125.131h0a.2.2,0,0,0,.156.063l.036,0a.265.265,0,0,0,.182-.1.708.708,0,0,0,.1-.41A.87.87,0,0,0,.764.344.271.271,0,0,0,.689.333Z" transform="translate(28.057 38.682)"/>
        <path id="Shape-34" data-name="Shape" d="M.666,1.5a.642.642,0,0,1-.28-.066.551.551,0,0,1-.311-.409C.068.978.058.929.046.874L.035.825l0-.016A1.273,1.273,0,0,1,0,.551.506.506,0,0,1,.077.264.53.53,0,0,1,.357.059.984.984,0,0,1,.678,0,.669.669,0,0,1,.807.012a.572.572,0,0,1,.33.194,1.234,1.234,0,0,1,.241.681A.169.169,0,0,1,1.351,1l-.016.023,0,0a1.066,1.066,0,0,1-.461.435h0a.509.509,0,0,1-.2.041ZM.679.333A.659.659,0,0,0,.467.375.209.209,0,0,0,.356.448a.184.184,0,0,0-.023.1A.984.984,0,0,0,.358.742l0,.011,0,.02,0,.021C.382.853.4.92.405.981a.213.213,0,0,0,.128.156.3.3,0,0,0,.132.032.188.188,0,0,0,.073-.013.707.707,0,0,0,.3-.291A.87.87,0,0,0,.885.424.245.245,0,0,0,.743.339.331.331,0,0,0,.679.333Z" transform="translate(30.106 31.848)"/>
        <path id="Shape-35" data-name="Shape" d="M.62,1.486a.865.865,0,0,1-.138-.011h0A.584.584,0,0,1,.088,1.19.549.549,0,0,1,.048.677C.066.639.082.6.1.556L.109.532.132.471A1.293,1.293,0,0,1,.245.236a.5.5,0,0,1,.222-.2A.47.47,0,0,1,.657,0,.659.659,0,0,1,.812.02a.861.861,0,0,1,.4.205.573.573,0,0,1,.171.342,1.229,1.229,0,0,1-.168.7.167.167,0,0,1-.085.079l-.014.006-.011,0a1.212,1.212,0,0,1-.489.126ZM.657.333A.141.141,0,0,0,.6.344.186.186,0,0,0,.524.417.973.973,0,0,0,.442.592L.433.616.423.642C.4.691.379.759.351.818a.215.215,0,0,0,.023.2.263.263,0,0,0,.162.128.535.535,0,0,0,.086.007.847.847,0,0,0,.327-.087A.874.874,0,0,0,1.058.613.242.242,0,0,0,.984.464a.539.539,0,0,0-.25-.12A.318.318,0,0,0,.657.333Z" transform="translate(36.745 26.387)"/>
        <path id="Shape-36" data-name="Shape" d="M.62,1.486a.868.868,0,0,1-.139-.011A.587.587,0,0,1,.088,1.19.549.549,0,0,1,.048.677C.068.634.086.589.106.539l0-.005C.115.512.122.494.131.472A1.315,1.315,0,0,1,.244.237a.5.5,0,0,1,.222-.2A.47.47,0,0,1,.657,0,.659.659,0,0,1,.812.02a.861.861,0,0,1,.4.205.573.573,0,0,1,.171.342,1.234,1.234,0,0,1-.168.7.169.169,0,0,1-.084.079l-.014.006-.011,0h0A1.206,1.206,0,0,1,.62,1.486ZM.657.333A.143.143,0,0,0,.6.344.182.182,0,0,0,.525.418.938.938,0,0,0,.442.592L.437.605l0,.01L.423.642v0h0C.4.7.378.764.352.818a.216.216,0,0,0,.022.2.262.262,0,0,0,.162.128.537.537,0,0,0,.086.007.846.846,0,0,0,.327-.087A.875.875,0,0,0,1.058.613.245.245,0,0,0,.984.464.55.55,0,0,0,.733.344.323.323,0,0,0,.658.333Z" transform="translate(32.975 26.222)"/>
        <path id="Shape-37" data-name="Shape" d="M.82,1.472l-.03,0-.016,0-.012,0a1.07,1.07,0,0,1-.588-.246h0A.588.588,0,0,1,0,.765.551.551,0,0,1,.246.314C.285.29.322.262.365.231L.374.225.427.185A1.317,1.317,0,0,1,.651.051.536.536,0,0,1,.87,0,.436.436,0,0,1,.943.006a.527.527,0,0,1,.3.172.863.863,0,0,1,.227.393.578.578,0,0,1-.043.381,1.234,1.234,0,0,1-.525.5.165.165,0,0,1-.083.023ZM.871.333A.215.215,0,0,0,.785.356a1.014,1.014,0,0,0-.164.1L.578.489.567.5C.525.527.472.566.422.6a.215.215,0,0,0-.09.181A.26.26,0,0,0,.4.973a.7.7,0,0,0,.39.158.87.87,0,0,0,.339-.32.246.246,0,0,0,.02-.165A.547.547,0,0,0,1,.408.214.214,0,0,0,.89.336l-.019,0Z" transform="translate(45.252 25.439)"/>
        <path id="Shape-38" data-name="Shape" d="M.6,1.33H.516a.164.164,0,0,1-.107-.043L.4,1.28.388,1.266l0,0A1.062,1.062,0,0,1,.019.746h0A.585.585,0,0,1,.112.269.548.548,0,0,1,.558.017h0C.6.017.644.014.692.011l.025,0,.023,0L.781,0C.813,0,.858,0,.906,0a.957.957,0,0,1,.136.009.5.5,0,0,1,.273.117.534.534,0,0,1,.163.305.864.864,0,0,1-.015.453.573.573,0,0,1-.237.3A1.145,1.145,0,0,1,.6,1.33ZM.557.351a.212.212,0,0,0-.17.105.265.265,0,0,0-.047.2A.7.7,0,0,0,.587,1H.594A.855.855,0,0,0,1.044.9a.245.245,0,0,0,.1-.129.544.544,0,0,0,0-.279A.211.211,0,0,0,1.094.376.181.181,0,0,0,1,.339.623.623,0,0,0,.908.334c-.029,0-.063,0-.106,0H.791L.773.34l-.024,0-.024,0C.677.347.616.351.558.351Z" transform="translate(51.887 24.334)"/>
        <path id="Shape-39" data-name="Shape" d="M.59,1.33H.516a.169.169,0,0,1-.107-.044L.4,1.275l-.009-.01A1.062,1.062,0,0,1,.02.746.59.59,0,0,1,.112.268.55.55,0,0,1,.558.017h0C.6.017.647.014.7.01H.73l.051,0C.821,0,.863,0,.908,0a.949.949,0,0,1,.134.009.509.509,0,0,1,.272.117.531.531,0,0,1,.163.306.863.863,0,0,1-.015.453.572.572,0,0,1-.237.3A1.156,1.156,0,0,1,.59,1.33Zm.318-1C.88.333.847.335.8.337L.766.34H.749C.687.346.621.35.559.35A.215.215,0,0,0,.387.456a.263.263,0,0,0-.047.2A.7.7,0,0,0,.587,1H.593A.858.858,0,0,0,1.044.9a.245.245,0,0,0,.1-.129.55.55,0,0,0,0-.279A.214.214,0,0,0,1.094.376.184.184,0,0,0,1,.338a.633.633,0,0,0-.088,0Z" transform="translate(51.4 27.887)"/>
        <path id="Shape-40" data-name="Shape" d="M.819,1.424h0a1.226,1.226,0,0,1-.672-.265.166.166,0,0,1-.066-.095c0-.009-.006-.018-.008-.027v0A1.064,1.064,0,0,1,.044.4.587.587,0,0,1,.38.049.6.6,0,0,1,.614,0a.5.5,0,0,1,.28.082c.04.026.082.05.134.079.019.01.038.02.057.032A1.283,1.283,0,0,1,1.3.338a.507.507,0,0,1,.165.247.534.534,0,0,1-.031.345.865.865,0,0,1-.259.372.57.57,0,0,1-.359.123ZM.613.334a.264.264,0,0,0-.1.022A.26.26,0,0,0,.361.5.709.709,0,0,0,.382.918a.858.858,0,0,0,.433.172h0a.242.242,0,0,0,.154-.052A.544.544,0,0,0,1.127.806.212.212,0,0,0,1.146.674.19.19,0,0,0,1.083.589,1.011,1.011,0,0,0,.922.483L.883.461l-.008,0-.006,0C.821.427.761.394.71.361A.177.177,0,0,0,.613.334Z" transform="translate(56.405 33.738)"/>
        <path id="Shape-41" data-name="Shape" d="M.815,1.424a1.237,1.237,0,0,1-.672-.266.165.165,0,0,1-.066-.095.118.118,0,0,1,0-.015l0-.012A1.065,1.065,0,0,1,.044.4.587.587,0,0,1,.38.048.608.608,0,0,1,.613,0a.5.5,0,0,1,.28.082c.04.025.079.047.126.073l.009,0,.037.02.021.012A1.309,1.309,0,0,1,1.3.337a.506.506,0,0,1,.166.247.531.531,0,0,1-.031.345.858.858,0,0,1-.259.372A.579.579,0,0,1,.815,1.424ZM.612.333a.265.265,0,0,0-.1.022A.263.263,0,0,0,.361.5.7.7,0,0,0,.383.918a.871.871,0,0,0,.433.172.245.245,0,0,0,.158-.052A.546.546,0,0,0,1.128.806.214.214,0,0,0,1.147.674.185.185,0,0,0,1.084.589,1.03,1.03,0,0,0,.923.483L.913.478l-.006,0L.876.457C.821.427.763.4.71.361a.178.178,0,0,0-.1-.027Z" transform="translate(59.085 37.274)"/>
        <path id="Shape-42" data-name="Shape" d="M.751,1.5a.581.581,0,0,1-.32-.1A1.238,1.238,0,0,1,.013.81.163.163,0,0,1,.008.7l0-.015,0-.011v0A1.06,1.06,0,0,1,.343.12h0A.559.559,0,0,1,.7,0,.661.661,0,0,1,.816.01a.547.547,0,0,1,.411.306c.017.04.038.079.059.12L1.3.456l.028.053,0,.005a1.286,1.286,0,0,1,.1.239.5.5,0,0,1,0,.3.537.537,0,0,1-.213.275.862.862,0,0,1-.419.17ZM.7.333A.242.242,0,0,0,.555.376.709.709,0,0,0,.344.74a.87.87,0,0,0,.27.381.242.242,0,0,0,.136.043H.774a.544.544,0,0,0,.256-.111.213.213,0,0,0,.087-.1A.19.19,0,0,0,1.111.846.941.941,0,0,0,1.033.669L1.022.647l0-.007,0-.009,0-.009C.979.567.948.509.923.452A.214.214,0,0,0,.757.338.316.316,0,0,0,.7.333Z" transform="translate(57.156 45.233)"/>
        <path id="Shape-43" data-name="Shape" d="M.717,1.494a.835.835,0,0,1-.393-.086.577.577,0,0,1-.259-.282A1.222,1.222,0,0,1,.033.4.164.164,0,0,1,.092.3L.1.3.114.286A1.06,1.06,0,0,1,.685,0h0L.738,0a.6.6,0,0,1,.4.169A.548.548,0,0,1,1.32.651C1.312.7,1.309.745,1.3.8V.807c0,.02,0,.043-.006.065a1.257,1.257,0,0,1-.045.257A.506.506,0,0,1,1.1,1.38a.526.526,0,0,1-.327.113ZM.738.334H.724A.7.7,0,0,0,.348.524.867.867,0,0,0,.368.99a.242.242,0,0,0,.112.123.513.513,0,0,0,.239.047H.754a.218.218,0,0,0,.127-.037.185.185,0,0,0,.053-.092A.962.962,0,0,0,.965.842c0-.006,0-.012,0-.018S.969.8.97.788l0-.02c0-.05.01-.113.02-.17A.213.213,0,0,0,.914.413.271.271,0,0,0,.738.334Z" transform="translate(52.352 52.34)"/>
        <path id="Shape-44" data-name="Shape" d="M.687,1.471A.561.561,0,0,1,.408,1.39a.867.867,0,0,1-.331-.308A.569.569,0,0,1,.006.705,1.235,1.235,0,0,1,.362.075a.17.17,0,0,1,.1-.052H.471a.094.094,0,0,1,.022,0A2.1,2.1,0,0,1,.746,0a.868.868,0,0,1,.381.083h0a.585.585,0,0,1,.3.383.549.549,0,0,1-.1.5c-.029.034-.057.07-.088.112l-.009.011c-.012.017-.027.036-.04.052a1.23,1.23,0,0,1-.174.195.506.506,0,0,1-.267.129.453.453,0,0,1-.058,0ZM.751.333A1.676,1.676,0,0,0,.567.346.865.865,0,0,0,.336.752.243.243,0,0,0,.365.916.545.545,0,0,0,.573,1.1a.237.237,0,0,0,.113.038H.7a.181.181,0,0,0,.094-.05A.938.938,0,0,0,.921.942L.954.9c.037-.05.077-.1.117-.15h0A.215.215,0,0,0,1.1.553.264.264,0,0,0,.984.386.518.518,0,0,0,.751.333Z" transform="translate(47.033 55.322)"/>
        <path id="Shape-45" data-name="Shape" d="M.923,1.324a.505.505,0,0,1-.062,0c-.049-.006-.1-.009-.155-.011l-.049,0H.639a1.254,1.254,0,0,1-.258-.034.5.5,0,0,1-.256-.149A.532.532,0,0,1,0,.8.872.872,0,0,1,.071.35.576.576,0,0,1,.343.082.955.955,0,0,1,.76,0a2.017,2.017,0,0,1,.3.026.165.165,0,0,1,.1.056L1.182.1a1.065,1.065,0,0,1,.3.562.588.588,0,0,1-.15.462A.554.554,0,0,1,.923,1.324ZM.76.332A.637.637,0,0,0,.488.381.241.241,0,0,0,.37.5.546.546,0,0,0,.333.773.212.212,0,0,0,.374.9.182.182,0,0,0,.468.949.916.916,0,0,0,.659.973L.7.976H.74C.791.978.85.982.9.988h.02A.221.221,0,0,0,1.086.9.26.26,0,0,0,1.157.711a.7.7,0,0,0-.2-.369A1.606,1.606,0,0,0,.76.333Z" transform="translate(21.186 55.327)"/>
        <path id="Shape-46" data-name="Shape" d="M.881,1.409a.5.5,0,0,1-.246-.064C.591,1.32.544,1.3.495,1.276L.463,1.261.436,1.248A1.281,1.281,0,0,1,.21,1.119.505.505,0,0,1,.028.884a.538.538,0,0,1,0-.347A.871.871,0,0,1,.266.149.575.575,0,0,1,.619,0H.664a1.3,1.3,0,0,1,.644.219.165.165,0,0,1,.073.089l0,.013,0,.014A1.059,1.059,0,0,1,1.46.97h0a.584.584,0,0,1-.312.371.6.6,0,0,1-.267.066ZM.665.333H.642A.245.245,0,0,0,.488.4.538.538,0,0,0,.351.638.209.209,0,0,0,.341.771.182.182,0,0,0,.409.852,1.018,1.018,0,0,0,.578.947L.6.957h0L.626.969l.006,0c.053.024.113.052.165.081a.175.175,0,0,0,.086.021A.253.253,0,0,0,1,1.045.262.262,0,0,0,1.136.893a.706.706,0,0,0-.05-.418A.934.934,0,0,0,.665.333Z" transform="translate(16.038 47.412)"/>
        <path id="Shape-47" data-name="Shape" d="M.81,1.477a.536.536,0,0,1-.431-.2c-.03-.04-.065-.078-.1-.119L.263,1.143h0L.234,1.11A1.322,1.322,0,0,1,.075.9.51.51,0,0,1,0,.615.533.533,0,0,1,.14.3.867.867,0,0,1,.506.031.581.581,0,0,1,.693,0a.6.6,0,0,1,.2.034A1.23,1.23,0,0,1,1.439.5a.17.17,0,0,1,.032.111c0,.009,0,.019,0,.028v0a1.066,1.066,0,0,1-.184.608.586.586,0,0,1-.431.221ZM.693.334A.236.236,0,0,0,.614.347.544.544,0,0,0,.393.516.211.211,0,0,0,.332.634a.189.189,0,0,0,.031.1A1.03,1.03,0,0,0,.482.888l.036.04c.04.044.085.095.124.145a.208.208,0,0,0,.167.071H.831a.263.263,0,0,0,.186-.085A.7.7,0,0,0,1.134.653.868.868,0,0,0,.78.349.265.265,0,0,0,.693.334Z" transform="translate(13.247 40.536)"/>
        <path id="Shape-48" data-name="Shape" d="M.713,1.5a.651.651,0,0,1-.2-.033.548.548,0,0,1-.365-.363C.133,1.061.117,1.016.1.961L.084.927C.079.916.077.908.074.9A1.283,1.283,0,0,1,0,.647.5.5,0,0,1,.043.352.528.528,0,0,1,.291.112.9.9,0,0,1,.7,0H.73a.576.576,0,0,1,.354.147,1.233,1.233,0,0,1,.334.642A.171.171,0,0,1,1.406.9L1.4.92l0,.01v0a1.061,1.061,0,0,1-.4.5h0A.535.535,0,0,1,.713,1.5ZM.7.334A.567.567,0,0,0,.444.408a.215.215,0,0,0-.1.087A.188.188,0,0,0,.335.6.911.911,0,0,0,.387.786L.405.836l0,.007,0,0C.429.9.451.96.467,1.017a.212.212,0,0,0,.148.136.31.31,0,0,0,.1.016A.218.218,0,0,0,.82,1.144.707.707,0,0,0,1.079.812.867.867,0,0,0,.865.4.245.245,0,0,0,.712.334Z" transform="translate(16.345 28.915)"/>
        <path id="Shape-49" data-name="Shape" d="M.592,1.5A.607.607,0,0,1,.2,1.34.548.548,0,0,1,.006.864C.012.814.015.765.018.708c0-.015,0-.03,0-.046V.642A1.293,1.293,0,0,1,.056.384.508.508,0,0,1,.206.127.53.53,0,0,1,.529,0C.56,0,.591,0,.621,0A.8.8,0,0,1,.977.073a.578.578,0,0,1,.269.272,1.234,1.234,0,0,1,.057.722.168.168,0,0,1-.056.1h0l-.02.018a1.064,1.064,0,0,1-.563.3h0A.481.481,0,0,1,.592,1.5ZM.553.336A.211.211,0,0,0,.427.377.187.187,0,0,0,.378.47.977.977,0,0,0,.353.662V.683c0,.01,0,.021,0,.032V.73C.348.779.344.846.338.905a.213.213,0,0,0,.083.183.277.277,0,0,0,.172.073h.02a.7.7,0,0,0,.368-.2A.866.866,0,0,0,.945.491.244.244,0,0,0,.829.373.475.475,0,0,0,.621.333a.649.649,0,0,0-.068,0L.923.873Z" transform="translate(21.708 21.161)"/>
        <path id="Shape-50" data-name="Shape" d="M.636,1.483a.852.852,0,0,1-.2-.023.588.588,0,0,1-.372-.311.548.548,0,0,1,0-.514C.089.591.11.545.134.494L.162.435A1.276,1.276,0,0,1,.291.208.506.506,0,0,1,.526.026.46.46,0,0,1,.682,0a.625.625,0,0,1,.19.032A.863.863,0,0,1,1.26.265a.575.575,0,0,1,.147.354,1.235,1.235,0,0,1-.218.69.164.164,0,0,1-.09.073l-.027.009a1.311,1.311,0,0,1-.437.093ZM.682.333A.132.132,0,0,0,.638.34.184.184,0,0,0,.557.408.978.978,0,0,0,.463.576L.456.593l0,.01,0,.009L.44.626C.413.685.385.744.356.8A.214.214,0,0,0,.364,1a.261.261,0,0,0,.152.138.52.52,0,0,0,.12.015.949.949,0,0,0,.3-.065A.865.865,0,0,0,1.075.641.242.242,0,0,0,1.012.487.546.546,0,0,0,.771.349.3.3,0,0,0,.682.333Z" transform="translate(29.533 16.014)"/>
        <path id="Shape-51" data-name="Shape" d="M.872,1.473H.86l-.028,0a1.064,1.064,0,0,1-.611-.183A.586.586,0,0,1,0,.854.551.551,0,0,1,.2.38C.237.349.274.315.316.278L.344.253.366.233A1.31,1.31,0,0,1,.572.076.514.514,0,0,1,.834,0H.86a.53.53,0,0,1,.316.141.868.868,0,0,1,.267.367.578.578,0,0,1,0,.382,1.234,1.234,0,0,1-.47.551.165.165,0,0,1-.1.032ZM.834.333a.194.194,0,0,0-.1.031A.962.962,0,0,0,.587.483L.575.494.568.5.561.507.547.519C.5.558.452.6.4.644A.212.212,0,0,0,.332.832a.263.263,0,0,0,.086.187.7.7,0,0,0,.4.116.862.862,0,0,0,.3-.354.247.247,0,0,0,0-.166A.55.55,0,0,0,.959.393.211.211,0,0,0,.841.334Z" transform="translate(38.744 14.309)"/>
        <path id="Shape-52" data-name="Shape" d="M.671,1.426A.169.169,0,0,1,.6,1.409L.572,1.4a1.066,1.066,0,0,1-.5-.4A.59.59,0,0,1,.031.514.55.55,0,0,1,.393.148C.439.134.485.119.541.1L.6.075A1.268,1.268,0,0,1,.854.006.641.641,0,0,1,.943,0a.475.475,0,0,1,.2.044.534.534,0,0,1,.241.249.864.864,0,0,1,.11.44.576.576,0,0,1-.146.355,1.229,1.229,0,0,1-.641.334.168.168,0,0,1-.041,0ZM.943.333.9.336A.97.97,0,0,0,.714.389L.667.406h0C.608.427.544.451.484.469A.216.216,0,0,0,.347.617a.265.265,0,0,0,.01.205.7.7,0,0,0,.331.259A.867.867,0,0,0,1.1.867.245.245,0,0,0,1.165.714.546.546,0,0,0,1.092.445.211.211,0,0,0,1,.345.142.142,0,0,0,.943.333Z" transform="translate(47.924 16.317)"/>
        <path id="Shape-53" data-name="Shape" d="M.734,1.325A2.02,2.02,0,0,1,.43,1.3a.168.168,0,0,1-.1-.056L.311,1.222a1.068,1.068,0,0,1-.3-.561A.588.588,0,0,1,.157.2.556.556,0,0,1,.57,0,.506.506,0,0,1,.633,0c.049.006.1.009.156.011h.02l.045,0a1.287,1.287,0,0,1,.259.035A.5.5,0,0,1,1.368.2a.529.529,0,0,1,.125.323.87.87,0,0,1-.07.448.577.577,0,0,1-.272.269.955.955,0,0,1-.417.081ZM.571.333A.223.223,0,0,0,.408.418.265.265,0,0,0,.336.611.707.707,0,0,0,.54.98,1.607,1.607,0,0,0,.734.993.635.635,0,0,0,1.006.944.246.246,0,0,0,1.125.828.547.547,0,0,0,1.162.551.218.218,0,0,0,1.12.425.187.187,0,0,0,1.026.376.979.979,0,0,0,.835.351H.819l-.033,0h0C.732.347.658.344.591.335l-.02,0Z" transform="translate(55.676 21.689)"/>
        <path id="Shape-54" data-name="Shape" d="M.824,1.409A1.293,1.293,0,0,1,.18,1.189.165.165,0,0,1,.108,1.1a.044.044,0,0,1,0-.013S.1,1.077.1,1.073A1.06,1.06,0,0,1,.029.439v0A.584.584,0,0,1,.34.066.6.6,0,0,1,.608,0,.5.5,0,0,1,.854.063C.9.087.94.108.994.133L1,.136,1.054.16a1.23,1.23,0,0,1,.226.13.508.508,0,0,1,.182.235.536.536,0,0,1-.005.347.864.864,0,0,1-.233.389.575.575,0,0,1-.353.147ZM.607.333a.258.258,0,0,0-.116.03A.262.262,0,0,0,.352.515.708.708,0,0,0,.4.933a.935.935,0,0,0,.421.142H.847A.244.244,0,0,0,1,1.012.54.54,0,0,0,1.138.769.21.21,0,0,0,1.147.637.188.188,0,0,0,1.079.556,1.023,1.023,0,0,0,.911.461L.895.453l-.009,0L.864.439l-.006,0-.005,0C.8.41.743.383.692.355A.171.171,0,0,0,.606.333Z" transform="translate(60.828 29.519)"/>
        <path id="Shape-55" data-name="Shape" d="M.779,1.474a.6.6,0,0,1-.187-.031A1.226,1.226,0,0,1,.034.984.168.168,0,0,1,0,.873C0,.864,0,.854,0,.845A1.065,1.065,0,0,1,.174.231h0A.588.588,0,0,1,.6,0,.4.4,0,0,1,.656,0a.535.535,0,0,1,.423.193c.03.037.062.072.1.116l0,.005.04.043a1.313,1.313,0,0,1,.161.205A.512.512,0,0,1,1.47.848a.53.53,0,0,1-.135.318.86.86,0,0,1-.361.273.571.571,0,0,1-.2.035ZM.656.333H.63A.26.26,0,0,0,.445.423.7.7,0,0,0,.336.83a.864.864,0,0,0,.359.3.262.262,0,0,0,.083.014.24.24,0,0,0,.082-.014A.551.551,0,0,0,1.079.954a.21.21,0,0,0,.058-.12A.184.184,0,0,0,1.1.734.976.976,0,0,0,.984.583h0L.965.562.949.544.943.538l0,0C.9.494.858.447.821.4A.205.205,0,0,0,.656.333Z" transform="translate(62.551 38.736)"/>
        <path id="Shape-56" data-name="Shape" d="M.727,1.5H.693a.577.577,0,0,1-.354-.146A1.231,1.231,0,0,1,0,.714.171.171,0,0,1,.017.6C.021.591.025.583.029.573a1.062,1.062,0,0,1,.4-.5A.534.534,0,0,1,.709,0a.662.662,0,0,1,.2.032.548.548,0,0,1,.365.362c.013.047.03.093.05.147h0l.011.03L1.349.6a1.279,1.279,0,0,1,.069.252.5.5,0,0,1-.038.295.53.53,0,0,1-.248.241A.89.89,0,0,1,.727,1.5ZM.711.333A.216.216,0,0,0,.6.359.706.706,0,0,0,.344.691.868.868,0,0,0,.558,1.1a.24.24,0,0,0,.153.064H.729a.569.569,0,0,0,.25-.074.218.218,0,0,0,.1-.086A.184.184,0,0,0,1.088.9.922.922,0,0,0,1.036.717c0-.014-.01-.03-.018-.05C1,.608.973.545.957.486A.214.214,0,0,0,.808.35a.312.312,0,0,0-.1-.017Z" transform="translate(60.588 47.923)"/>
        <path id="Shape-57" data-name="Shape" d="M.7,1.5a.794.794,0,0,1-.355-.074.575.575,0,0,1-.269-.272A1.234,1.234,0,0,1,.019.428a.168.168,0,0,1,.056-.1L.094.309h0a1.061,1.061,0,0,1,.562-.3h0A.481.481,0,0,1,.728,0,.607.607,0,0,1,1.12.155a.549.549,0,0,1,.194.476c0,.041-.007.084-.01.129V.787c0,.015,0,.031,0,.047V.852a1.289,1.289,0,0,1-.035.259.508.508,0,0,1-.15.257.532.532,0,0,1-.323.125C.76,1.494.729,1.5.7,1.5ZM.728.333H.708a.7.7,0,0,0-.369.2A.868.868,0,0,0,.375,1a.247.247,0,0,0,.116.119.477.477,0,0,0,.207.04.6.6,0,0,0,.069,0,.205.205,0,0,0,.126-.041.186.186,0,0,0,.049-.093A.978.978,0,0,0,.967.833V.813q0-.015,0-.032V.764C.972.709.976.647.983.589A.213.213,0,0,0,.9.406.277.277,0,0,0,.728.334Z" transform="translate(55.327 55.684)"/>
        <path id="Shape-58" data-name="Shape" d="M.729,1.483a.627.627,0,0,1-.19-.032.865.865,0,0,1-.388-.232A.577.577,0,0,1,0,.865,1.229,1.229,0,0,1,.221.176.163.163,0,0,1,.311.1L.322.1.339.094A1.307,1.307,0,0,1,.775,0a.851.851,0,0,1,.2.023.59.59,0,0,1,.373.312.55.55,0,0,1,0,.515C1.322.894,1.3.943,1.279.99l-.009.018-.02.041a1.306,1.306,0,0,1-.129.226.507.507,0,0,1-.235.181.459.459,0,0,1-.156.026ZM.774.333A.943.943,0,0,0,.477.4.864.864,0,0,0,.336.843.24.24,0,0,0,.4,1a.542.542,0,0,0,.242.138.3.3,0,0,0,.088.016.138.138,0,0,0,.045-.007.188.188,0,0,0,.081-.069A1.008,1.008,0,0,0,.949.906L.958.888l0-.007,0-.005L.971.858C1,.8,1.026.741,1.055.688h0a.215.215,0,0,0-.009-.2A.257.257,0,0,0,.895.348.516.516,0,0,0,.774.333Z" transform="translate(47.411 60.843)"/>
        <path id="Shape-59" data-name="Shape" d="M.641,1.473H.614A.534.534,0,0,1,.3,1.332.873.873,0,0,1,.031.966a.58.58,0,0,1,0-.383A1.226,1.226,0,0,1,.5.032.17.17,0,0,1,.6,0H.618L.642,0h0a1.061,1.061,0,0,1,.606.183h0a.584.584,0,0,1,.221.433.551.551,0,0,1-.2.475c-.032.025-.064.054-.1.084l-.02.018-.049.044A1.314,1.314,0,0,1,.9,1.4.517.517,0,0,1,.641,1.473ZM.652.338a.868.868,0,0,0-.3.355.246.246,0,0,0,0,.166.555.555,0,0,0,.169.222.212.212,0,0,0,.119.059H.639a.2.2,0,0,0,.095-.031A.983.983,0,0,0,.887.989.416.416,0,0,1,.92.959L.927.953C.968.915,1.02.868,1.071.829A.214.214,0,0,0,1.142.64.261.261,0,0,0,1.056.455a.7.7,0,0,0-.4-.117Z" transform="translate(38.138 62.559)"/>
        <path id="Shape-60" data-name="Shape" d="M.931,1.317H.894c-.031,0-.063,0-.1,0H.672a1.317,1.317,0,0,1-.26-.022.5.5,0,0,1-.264-.136A.532.532,0,0,1,.007.838.861.861,0,0,1,.054.388.571.571,0,0,1,.312.105,1.028,1.028,0,0,1,.809,0,2.19,2.19,0,0,1,1.028.01a.167.167,0,0,1,.1.051l.02.02a1.065,1.065,0,0,1,.331.546h0a.588.588,0,0,1-.126.469.547.547,0,0,1-.426.221ZM.779.979c.055,0,.1,0,.138,0h.01A.218.218,0,0,0,1.1.89a.261.261,0,0,0,.061-.2A.7.7,0,0,0,.935.337c-.044,0-.087,0-.126,0A.708.708,0,0,0,.473.4.242.242,0,0,0,.361.519.544.544,0,0,0,.338.8.208.208,0,0,0,.386.92a.181.181,0,0,0,.1.045A1,1,0,0,0,.674.98h.1Z" transform="translate(17.691 55.189)"/>
        <path id="Shape-61" data-name="Shape" d="M.891,1.389a.5.5,0,0,1-.205-.045C.641,1.325.594,1.307.54,1.288L.479,1.266a1.34,1.34,0,0,1-.237-.11.5.5,0,0,1-.2-.218A.531.531,0,0,1,.016.593a.859.859,0,0,1,.2-.408A.576.576,0,0,1,.552.008.721.721,0,0,1,.663,0a1.408,1.408,0,0,1,.6.165.168.168,0,0,1,.081.083l0,.009L1.35.273A1.064,1.064,0,0,1,1.476.9a.586.586,0,0,1-.277.4.586.586,0,0,1-.308.092ZM.663.333A.391.391,0,0,0,.6.338.245.245,0,0,0,.457.413.548.548,0,0,0,.34.667.218.218,0,0,0,.343.8.185.185,0,0,0,.418.875,1.01,1.01,0,0,0,.594.954L.61.96l.005,0,.029.01.014,0,.009,0c.049.018.105.038.154.06h0a.166.166,0,0,0,.069.014.251.251,0,0,0,.131-.041A.261.261,0,0,0,1.146.851.7.7,0,0,0,1.059.44a1.024,1.024,0,0,0-.4-.106Z" transform="translate(18.825 43.327)"/>
        <path id="Shape-62" data-name="Shape" d="M.839,1.458A.519.519,0,0,1,.47,1.314c-.038-.037-.079-.071-.119-.1l0,0L.3,1.168A1.28,1.28,0,0,1,.116.985.514.514,0,0,1,0,.712.527.527,0,0,1,.1.378.857.857,0,0,1,.423.063.568.568,0,0,1,.682,0,.611.611,0,0,1,.8.012,1.228,1.228,0,0,1,1.412.4a.171.171,0,0,1,.047.105.1.1,0,0,0,0,.022V.534a1.077,1.077,0,0,1-.095.631h0a.589.589,0,0,1-.4.278.633.633,0,0,1-.128.013ZM.684.333A.242.242,0,0,0,.573.36a.541.541,0,0,0-.2.2A.215.215,0,0,0,.334.683a.194.194,0,0,0,.045.1A.986.986,0,0,0,.518.914l.02.016,0,0L.559.949.568.957l0,0c.042.035.089.075.13.115a.192.192,0,0,0,.136.05A.3.3,0,0,0,.9,1.119a.258.258,0,0,0,.172-.111A.692.692,0,0,0,1.13.592.87.87,0,0,0,.738.339.276.276,0,0,0,.684.333Z" transform="translate(15.936 36.744)"/>
        <path id="Shape-63" data-name="Shape" d="M.763,1.5a.652.652,0,0,1-.091-.007A.547.547,0,0,1,.25,1.2C.229,1.154.2,1.112.177,1.065l0-.005L.158,1.032.142,1A1.315,1.315,0,0,1,.03.767.507.507,0,0,1,.016.47a.528.528,0,0,1,.2-.28A.866.866,0,0,1,.633,0,.593.593,0,0,1,.7,0a.579.579,0,0,1,.3.087,1.231,1.231,0,0,1,.44.573.166.166,0,0,1,.008.115L1.447.8v0a1.069,1.069,0,0,1-.306.559A.568.568,0,0,1,.763,1.5ZM.7.334l-.032,0A.545.545,0,0,0,.421.455a.208.208,0,0,0-.083.1A.183.183,0,0,0,.348.663.953.953,0,0,0,.432.837L.447.864l0,0L.458.883c.03.052.064.111.092.167a.213.213,0,0,0,.169.109.32.32,0,0,0,.045,0A.246.246,0,0,0,.92,1.114a.7.7,0,0,0,.2-.371A.857.857,0,0,0,.834.372.242.242,0,0,0,.7.334Z" transform="translate(19.878 28.197)"/>
        <path id="Shape-64" data-name="Shape" d="M.652,1.5a.642.642,0,0,1-.3-.076.55.55,0,0,1-.3-.42C.055.962.047.918.038.868l0-.016L.029.814l0-.027A1.279,1.279,0,0,1,0,.527.506.506,0,0,1,.088.243.532.532,0,0,1,.376.049,1.011,1.011,0,0,1,.672,0,.68.68,0,0,1,.827.017.575.575,0,0,1,1.15.222a1.24,1.24,0,0,1,.218.69.167.167,0,0,1-.032.111L1.33,1.03l-.012.016a1.065,1.065,0,0,1-.479.422A.507.507,0,0,1,.652,1.5ZM.672.334a.677.677,0,0,0-.2.035A.209.209,0,0,0,.361.437a.186.186,0,0,0-.027.1,1,1,0,0,0,.02.192L.358.762v0l0,.018V.789C.372.847.383.912.39.973a.214.214,0,0,0,.123.16.3.3,0,0,0,.138.037.176.176,0,0,0,.064-.011A.692.692,0,0,0,1.029.877.864.864,0,0,0,.891.431.244.244,0,0,0,.753.341.355.355,0,0,0,.672.333Z" transform="translate(26.526 21.519)"/>
        <path id="Shape-65" data-name="Shape" d="M.581,1.492a.591.591,0,0,1-.427-.205.549.549,0,0,1-.135-.5C.029.744.038.7.048.642v0C.051.619.054.6.058.58l0-.007A1.287,1.287,0,0,1,.126.321.5.5,0,0,1,.306.085.514.514,0,0,1,.605,0H.642a.866.866,0,0,1,.435.124.573.573,0,0,1,.234.3,1.228,1.228,0,0,1-.031.722.165.165,0,0,1-.068.094L1.2,1.253l-.011.008h0a1.065,1.065,0,0,1-.593.232H.581ZM.6.333A.193.193,0,0,0,.5.359.182.182,0,0,0,.436.446,1.018,1.018,0,0,0,.388.633c0,.01,0,.021-.006.032s0,.013,0,.02C.368.746.357.811.341.872A.216.216,0,0,0,.4,1.065a.26.26,0,0,0,.18.094h0A.7.7,0,0,0,.975,1,.868.868,0,0,0,1,.535.244.244,0,0,0,.9.4.541.541,0,0,0,.626.333Z" transform="translate(34.983 17.49)"/>
        <path id="Shape-66" data-name="Shape" d="M.657,1.479a.844.844,0,0,1-.269-.044h0a.587.587,0,0,1-.342-.343A.549.549,0,0,1,.086.58C.112.542.135.5.161.458L.168.446C.177.429.187.41.2.389A1.282,1.282,0,0,1,.349.175.5.5,0,0,1,.6.015.453.453,0,0,1,.713,0a.593.593,0,0,1,.23.05A.87.87,0,0,1,1.31.316a.578.578,0,0,1,.115.365,1.23,1.23,0,0,1-.277.668.166.166,0,0,1-.1.065l-.014,0-.014,0a1.511,1.511,0,0,1-.369.058ZM.714.333a.117.117,0,0,0-.03,0A.182.182,0,0,0,.6.4.917.917,0,0,0,.488.557L.473.583l0,.008L.461.6C.428.661.4.717.362.767a.214.214,0,0,0-.009.2.259.259,0,0,0,.138.151.5.5,0,0,0,.163.027,1.118,1.118,0,0,0,.257-.041A.861.861,0,0,0,1.09.675.241.241,0,0,0,1.041.517.543.543,0,0,0,.812.359a.265.265,0,0,0-.1-.025Z" transform="translate(44.273 16.595)"/>
        <path id="Shape-67" data-name="Shape" d="M.855,1.473H.837l-.027,0a1.064,1.064,0,0,1-.6-.2A.588.588,0,0,1,0,.825.549.549,0,0,1,.214.358C.254.329.292.3.335.259l.005,0L.386.217A1.289,1.289,0,0,1,.6.067.526.526,0,0,1,.846,0,.291.291,0,0,1,.888,0,.529.529,0,0,1,1.2.153a.865.865,0,0,1,.254.376.571.571,0,0,1-.016.383,1.224,1.224,0,0,1-.488.534.166.166,0,0,1-.094.028ZM.847.333A.2.2,0,0,0,.755.362,1.031,1.031,0,0,0,.6.474L.589.482l-.005,0L.574.494.558.508C.51.549.459.592.409.627A.215.215,0,0,0,.332.813.26.26,0,0,0,.411,1a.7.7,0,0,0,.4.131A.87.87,0,0,0,1.126.791.244.244,0,0,0,1.134.625.544.544,0,0,0,.973.4.215.215,0,0,0,.857.334Z" transform="translate(53.318 18.98)"/>
        <path id="Shape-68" data-name="Shape" d="M.671,1.426A.173.173,0,0,1,.6,1.409l0,0L.571,1.4a1.059,1.059,0,0,1-.5-.4h0A.587.587,0,0,1,.031.514.551.551,0,0,1,.393.148C.439.135.485.119.538.1h0L.6.075A1.31,1.31,0,0,1,.854.006.645.645,0,0,1,.942,0a.473.473,0,0,1,.205.044.528.528,0,0,1,.241.249.867.867,0,0,1,.11.44.573.573,0,0,1-.146.355,1.226,1.226,0,0,1-.641.334A.161.161,0,0,1,.671,1.426ZM.484.468h0A.215.215,0,0,0,.348.617.264.264,0,0,0,.357.822a.7.7,0,0,0,.331.26A.871.871,0,0,0,1.1.868.248.248,0,0,0,1.165.714.543.543,0,0,0,1.092.446.207.207,0,0,0,1,.346.149.149,0,0,0,.94.334L.9.336A1.083,1.083,0,0,0,.713.389L.692.4.664.407C.607.427.544.451.484.468Z" transform="translate(61.019 24.362)"/>
        <path id="Shape-69" data-name="Shape" d="M.687,1.319c-.068,0-.139,0-.219-.011a.166.166,0,0,1-.1-.051L.354,1.246l-.01-.01A1.059,1.059,0,0,1,.013.691h0A.587.587,0,0,1,.138.221.544.544,0,0,1,.565,0H.6C.652,0,.7,0,.759,0H.824a1.317,1.317,0,0,1,.26.022.506.506,0,0,1,.264.136.531.531,0,0,1,.141.316.861.861,0,0,1-.047.45.576.576,0,0,1-.257.283,1.015,1.015,0,0,1-.5.107ZM.566.334A.218.218,0,0,0,.4.427a.262.262,0,0,0-.061.2A.709.709,0,0,0,.561.981c.044,0,.086,0,.126,0A.708.708,0,0,0,1.023.92.247.247,0,0,0,1.136.8.544.544,0,0,0,1.159.52.211.211,0,0,0,1.11.4a.187.187,0,0,0-.1-.044A.978.978,0,0,0,.823.338h-.1c-.048,0-.1,0-.147,0Z" transform="translate(66.447 32.066)"/>
        <path id="Shape-70" data-name="Shape" d="M.826,1.389a1.4,1.4,0,0,1-.595-.165.166.166,0,0,1-.08-.083c0-.007-.006-.015-.009-.021l0-.005v0A1.066,1.066,0,0,1,.014.49h0a.588.588,0,0,1,.278-.4A.587.587,0,0,1,.6,0,.5.5,0,0,1,.8.044C.85.064.9.083.949.1L1,.12l.007,0a1.234,1.234,0,0,1,.237.109.505.505,0,0,1,.2.218A.534.534,0,0,1,1.473.8a.867.867,0,0,1-.2.408.572.572,0,0,1-.339.178A.725.725,0,0,1,.826,1.389ZM.6.334a.251.251,0,0,0-.13.041A.261.261,0,0,0,.344.538.7.7,0,0,0,.43.949a1.032,1.032,0,0,0,.4.106.387.387,0,0,0,.059,0A.249.249,0,0,0,1.033.976.556.556,0,0,0,1.149.722a.209.209,0,0,0,0-.133A.182.182,0,0,0,1.071.515.958.958,0,0,0,.895.435L.845.417.829.411C.778.392.72.372.667.348A.168.168,0,0,0,.6.334Z" transform="translate(68.959 41.055)"/>
        <path id="Shape-71" data-name="Shape" d="M.781,1.458a.621.621,0,0,1-.119-.012,1.239,1.239,0,0,1-.61-.389A.171.171,0,0,1,.006.951s0-.009,0-.014V.923A1.066,1.066,0,0,1,.1.292h0A.584.584,0,0,1,.5.014.625.625,0,0,1,.627,0,.517.517,0,0,1,.994.144c.033.032.068.061.109.1l.009.007.05.042a1.343,1.343,0,0,1,.185.184.508.508,0,0,1,.115.274.529.529,0,0,1-.1.333.867.867,0,0,1-.325.315A.575.575,0,0,1,.781,1.458ZM.627.333a.3.3,0,0,0-.06.007A.261.261,0,0,0,.394.45.7.7,0,0,0,.334.867a.87.87,0,0,0,.393.251.29.29,0,0,0,.055.006A.24.24,0,0,0,.892,1.1a.554.554,0,0,0,.2-.2A.214.214,0,0,0,1.131.774a.186.186,0,0,0-.045-.1A.981.981,0,0,0,.947.543L.934.532.906.509.9.5C.854.465.805.424.763.382A.19.19,0,0,0,.627.333Z" transform="translate(68.233 50.371)"/>
        <path id="Shape-72" data-name="Shape" d="M.757,1.5a.578.578,0,0,1-.3-.086A1.236,1.236,0,0,1,.014.836.169.169,0,0,1,.006.721l0-.014,0-.015A1.061,1.061,0,0,1,.32.133h0A.565.565,0,0,1,.7,0,.653.653,0,0,1,.789.006.54.54,0,0,1,1.211.3c.023.046.05.093.075.137L1.32.493A1.265,1.265,0,0,1,1.43.729a.5.5,0,0,1,.014.3.531.531,0,0,1-.2.281.87.87,0,0,1-.413.184.6.6,0,0,1-.071,0ZM.7.333A.245.245,0,0,0,.543.382a.7.7,0,0,0-.2.371.865.865,0,0,0,.281.371.247.247,0,0,0,.13.038l.032,0a.541.541,0,0,0,.252-.119.212.212,0,0,0,.083-.1A.183.183,0,0,0,1.114.833.964.964,0,0,0,1.03.659L1.014.631,1,.613,1,.607C.971.557.938.5.912.446a.215.215,0,0,0-.17-.11A.327.327,0,0,0,.7.333Z" transform="translate(62.719 56.734)"/>
        <path id="Shape-73" data-name="Shape" d="M.695,1.5A.686.686,0,0,1,.54,1.486a.573.573,0,0,1-.323-.206A1.23,1.23,0,0,1,0,.59.162.162,0,0,1,.031.479L.048.456A1.065,1.065,0,0,1,.527.034.509.509,0,0,1,.714,0a.641.641,0,0,1,.3.076.549.549,0,0,1,.3.42c0,.044.012.087.021.137l0,.017L1.34.7l0,.014a1.3,1.3,0,0,1,.024.26.509.509,0,0,1-.088.284.534.534,0,0,1-.287.194A1.008,1.008,0,0,1,.695,1.5ZM.715.334h0A.175.175,0,0,0,.65.345.694.694,0,0,0,.337.625a.866.866,0,0,0,.138.445.242.242,0,0,0,.138.089.338.338,0,0,0,.079.009.685.685,0,0,0,.2-.035.21.21,0,0,0,.116-.069.183.183,0,0,0,.027-.1,1.07,1.07,0,0,0-.02-.192c0-.016-.006-.034-.009-.053l0-.01C.994.653.983.59.976.531A.214.214,0,0,0,.854.37.3.3,0,0,0,.715.333Z" transform="translate(55.316 64.115)"/>
        <path id="Shape-74" data-name="Shape" d="M.748,1.493H.712a.87.87,0,0,1-.435-.124.576.576,0,0,1-.234-.3A1.232,1.232,0,0,1,.074.341.166.166,0,0,1,.142.248L.154.24.165.232h0A1.065,1.065,0,0,1,.759,0H.773A.59.59,0,0,1,1.2.206a.548.548,0,0,1,.135.5c-.01.043-.018.089-.027.138l0,.016L1.3.893l0,.027a1.339,1.339,0,0,1-.066.251.5.5,0,0,1-.18.237A.517.517,0,0,1,.748,1.493ZM.77.334A.694.694,0,0,0,.379.492.868.868,0,0,0,.358.957a.244.244,0,0,0,.1.132.544.544,0,0,0,.269.071h.02a.194.194,0,0,0,.111-.026.184.184,0,0,0,.059-.087A.973.973,0,0,0,.965.859C.968.843.971.825.975.807.988.728,1,.668,1.012.619A.216.216,0,0,0,.951.427.26.26,0,0,0,.773.334Z" transform="translate(51.068 69.601)"/>
        <path id="Shape-75" data-name="Shape" d="M.711,1.479a.6.6,0,0,1-.229-.05.87.87,0,0,1-.367-.266A.573.573,0,0,1,0,.8,1.227,1.227,0,0,1,.276.13a.166.166,0,0,1,.1-.065L.4.059A1.493,1.493,0,0,1,.769,0a.846.846,0,0,1,.269.044.59.59,0,0,1,.344.343A.551.551,0,0,1,1.338.9c-.026.04-.051.082-.081.134l-.033.057a1.331,1.331,0,0,1-.149.215.5.5,0,0,1-.25.16.455.455,0,0,1-.115.014ZM.771.332A1.11,1.11,0,0,0,.513.373.875.875,0,0,0,.333.8.244.244,0,0,0,.383.962a.545.545,0,0,0,.229.158.271.271,0,0,0,.1.027.117.117,0,0,0,.03,0,.193.193,0,0,0,.086-.061A1.013,1.013,0,0,0,.937.922L.955.892l0,0L.963.877l0-.007c.029-.05.061-.108.1-.158a.214.214,0,0,0,.009-.2A.262.262,0,0,0,.934.359.508.508,0,0,0,.771.333Z" transform="translate(40.782 69.301)"/>
        <path id="Shape-76" data-name="Shape" d="M.633,1.473a.3.3,0,0,1-.042,0A.527.527,0,0,1,.28,1.32.862.862,0,0,1,.026.944.571.571,0,0,1,.042.562,1.225,1.225,0,0,1,.53.029.165.165,0,0,1,.624,0H.642L.656,0,.67,0a1.062,1.062,0,0,1,.6.2A.59.59,0,0,1,1.48.649a.549.549,0,0,1-.214.467c-.042.03-.081.064-.122.1l-.051.043a1.291,1.291,0,0,1-.213.15.523.523,0,0,1-.248.066ZM.668.339h0l-.163.737a.22.22,0,0,0,.117.065H.631a.2.2,0,0,0,.093-.028A1.053,1.053,0,0,0,.88,1L.89.992.922.965c.045-.038.1-.082.149-.12A.213.213,0,0,0,1.147.659.259.259,0,0,0,1.068.47a.7.7,0,0,0-.4-.131Zm0,0A.871.871,0,0,0,.352.682.245.245,0,0,0,.344.848.544.544,0,0,0,.5,1.075L.667.339Z" transform="translate(30.837 68.12)"/>
        <path id="Shape-77" data-name="Shape" d="M.633,1.473a.3.3,0,0,1-.042,0A.53.53,0,0,1,.279,1.32.864.864,0,0,1,.025.944.578.578,0,0,1,.041.562,1.233,1.233,0,0,1,.529.028.168.168,0,0,1,.624,0H.642L.656,0,.67,0a1.059,1.059,0,0,1,.6.2h0A.587.587,0,0,1,1.48.649a.548.548,0,0,1-.215.467c-.04.029-.077.061-.12.1h0l-.051.043a1.28,1.28,0,0,1-.213.15.514.514,0,0,1-.248.068ZM.668.339h0l-.163.737a.215.215,0,0,0,.116.065H.63a.206.206,0,0,0,.094-.028A1.053,1.053,0,0,0,.88,1L.886.994.9.986.905.978.921.965c.045-.038.1-.082.149-.12A.215.215,0,0,0,1.147.659.26.26,0,0,0,1.068.47a.7.7,0,0,0-.4-.131Zm0,0A.864.864,0,0,0,.351.683.243.243,0,0,0,.343.848.544.544,0,0,0,.5,1.075L.667.339Z" transform="translate(23.799 72.296)"/>
        <path id="Shape-78" data-name="Shape" d="M.633,1.473a.3.3,0,0,1-.042,0A.534.534,0,0,1,.279,1.32.872.872,0,0,1,.025.944.579.579,0,0,1,.041.562,1.23,1.23,0,0,1,.529.028.164.164,0,0,1,.642,0H.672a1.064,1.064,0,0,1,.6.2h0a.585.585,0,0,1,.206.44.549.549,0,0,1-.215.467c-.041.03-.082.065-.121.1l-.014.012-.037.03a1.248,1.248,0,0,1-.213.151.514.514,0,0,1-.247.066ZM.668.338h0A.868.868,0,0,0,.351.682.247.247,0,0,0,.343.848.544.544,0,0,0,.5,1.075a.212.212,0,0,0,.116.064H.632a.2.2,0,0,0,.092-.028A1.053,1.053,0,0,0,.88,1L.92.964.931.954h0c.042-.035.09-.076.136-.109A.214.214,0,0,0,1.147.659a.264.264,0,0,0-.079-.19.707.707,0,0,0-.4-.131Z" transform="translate(26.114 78.498)"/>
        <path id="Shape-79" data-name="Shape" d="M.563,1.439A.457.457,0,0,1,.386,1.4a.535.535,0,0,1-.254-.235A.855.855,0,0,1,0,.736.573.573,0,0,1,.127.374,1.227,1.227,0,0,1,.749.008.167.167,0,0,1,.8,0,.159.159,0,0,1,.864.014l.012,0L.89.024h0A1.064,1.064,0,0,1,1.408.4a.587.587,0,0,1,.068.48.551.551,0,0,1-.342.385c-.042.014-.085.033-.13.052L.99,1.319a.623.623,0,0,1-.061.025,1.3,1.3,0,0,1-.248.081.625.625,0,0,1-.118.013ZM.791.344A.864.864,0,0,0,.39.58.242.242,0,0,0,.333.737.536.536,0,0,0,.42,1a.218.218,0,0,0,.093.1.135.135,0,0,0,.051.009A.285.285,0,0,0,.619,1.1.965.965,0,0,0,.8,1.038L.85,1.017l.025-.01h0c.049-.02.1-.042.15-.059A.214.214,0,0,0,1.156.791a.262.262,0,0,0-.02-.2A.7.7,0,0,0,.791.344Z" transform="translate(15.641 66.042)"/>
        <path id="Shape-80" data-name="Shape" d="M.574,1.338a.891.891,0,0,1-.093,0A.5.5,0,0,1,.2,1.226a.53.53,0,0,1-.173-.3.87.87,0,0,1,0-.453A.574.574,0,0,1,.258.165,1.226,1.226,0,0,1,.96,0a.169.169,0,0,1,.108.04l.011.009L1.09.054a1.062,1.062,0,0,1,.387.507h0A.59.59,0,0,1,1.4,1.04a.548.548,0,0,1-.438.268c-.052,0-.105.007-.156.013H.8l-.055.006C.7,1.333.636,1.338.574,1.338ZM.9.33A.867.867,0,0,0,.448.438a.243.243,0,0,0-.1.133A.539.539,0,0,0,.356.849.211.211,0,0,0,.416.968.182.182,0,0,0,.515,1L.571,1A1.335,1.335,0,0,0,.707,1a.327.327,0,0,0,.04,0H.763C.823.984.888.977.95.975A.213.213,0,0,0,1.118.864a.262.262,0,0,0,.04-.2A.7.7,0,0,0,.9.331Z" transform="translate(9.692 57.714)"/>
        <path id="Shape-81" data-name="Shape" d="M.907,1.354a.5.5,0,0,1-.131-.018C.731,1.324.684,1.315.631,1.3H.624L.6,1.3.559,1.291a1.311,1.311,0,0,1-.251-.071.508.508,0,0,1-.234-.184A.531.531,0,0,1,0,.7.866.866,0,0,1,.129.265.577.577,0,0,1,.436.036.82.82,0,0,1,.688,0a1.648,1.648,0,0,1,.47.08A.163.163,0,0,1,1.25.15l.012.018,0,.006a1.068,1.068,0,0,1,.222.6h0a.587.587,0,0,1-.212.436.565.565,0,0,1-.367.144ZM.686.333a.485.485,0,0,0-.148.02A.242.242,0,0,0,.4.452.55.55,0,0,0,.329.72.214.214,0,0,0,.353.851.187.187,0,0,0,.438.913.94.94,0,0,0,.625.963l.052.01H.684c.05.01.119.023.179.04a.16.16,0,0,0,.044.006.233.233,0,0,0,.15-.062.264.264,0,0,0,.1-.181A.7.7,0,0,0,1,.383,1.251,1.251,0,0,0,.686.333Z" transform="translate(6.468 47.968)"/>
        <path id="Shape-82" data-name="Shape" d="M.872,1.424a.5.5,0,0,1-.279-.082c-.04-.026-.083-.05-.135-.079L.4,1.231a1.293,1.293,0,0,1-.218-.145A.506.506,0,0,1,.018.839.534.534,0,0,1,.048.494.866.866,0,0,1,.307.123.577.577,0,0,1,.67,0a1.231,1.231,0,0,1,.672.265A.166.166,0,0,1,1.408.36l0,.014,0,.014a1.068,1.068,0,0,1,.026.638.588.588,0,0,1-.336.35.611.611,0,0,1-.234.049ZM.669.333A.243.243,0,0,0,.511.386.536.536,0,0,0,.358.617.214.214,0,0,0,.339.749.183.183,0,0,0,.4.834.964.964,0,0,0,.563.94L.609.966l.01.006c.049.027.106.059.155.09a.178.178,0,0,0,.1.028.266.266,0,0,0,.1-.022A.264.264,0,0,0,1.124.926.7.7,0,0,0,1.1.505.873.873,0,0,0,.669.333Z" transform="translate(6.246 37.667)"/>
        <path id="Shape-83" data-name="Shape" d="M.818,1.472A.534.534,0,0,1,.4,1.287C.37,1.248.335,1.211.3,1.173L.251,1.125a1.285,1.285,0,0,1-.166-.2A.51.51,0,0,1,0,.639.534.534,0,0,1,.129.318.87.87,0,0,1,.486.038.579.579,0,0,1,.691,0,.6.6,0,0,1,.869.027a1.237,1.237,0,0,1,.565.45.165.165,0,0,1,.035.11V.615a1.064,1.064,0,0,1-.162.618h0a.587.587,0,0,1-.425.236.634.634,0,0,1-.064,0ZM.69.333A.237.237,0,0,0,.6.35.542.542,0,0,0,.389.526.218.218,0,0,0,.333.647a.188.188,0,0,0,.035.1A.932.932,0,0,0,.491.9L.516.921.528.933l0,0c.039.04.087.089.128.138a.2.2,0,0,0,.161.065h.03a.264.264,0,0,0,.183-.093.7.7,0,0,0,.1-.409A.863.863,0,0,0,.77.346.264.264,0,0,0,.69.333Z" transform="translate(9.09 27.767)"/>
        <path id="Shape-84" data-name="Shape" d="M.751,1.5a.653.653,0,0,1-.126-.012.549.549,0,0,1-.408-.315C.2,1.13.18,1.091.157,1.045L.149,1.031.138,1.01h0L.12.972a1.246,1.246,0,0,1-.1-.241.5.5,0,0,1,0-.3A.535.535,0,0,1,.24.164.865.865,0,0,1,.663,0H.7a.573.573,0,0,1,.328.1,1.23,1.23,0,0,1,.409.6.165.165,0,0,1,0,.116c0,.008-.006.017-.009.027a1.065,1.065,0,0,1-.334.543A.561.561,0,0,1,.751,1.5ZM.7.333H.685A.547.547,0,0,0,.428.439a.214.214,0,0,0-.089.1.194.194,0,0,0,0,.106A.978.978,0,0,0,.417.822L.428.844.433.854.441.87v0c.025.05.057.112.082.17a.214.214,0,0,0,.164.117.317.317,0,0,0,.062.006.234.234,0,0,0,.14-.041.7.7,0,0,0,.217-.36A.876.876,0,0,0,.844.379.248.248,0,0,0,.7.333Z" transform="translate(14.741 19.154)"/>
        <path id="Shape-85" data-name="Shape" d="M.652,1.5a.642.642,0,0,1-.3-.076.548.548,0,0,1-.3-.42C.054.957.045.907.035.852.031.832.027.81.024.787A1.231,1.231,0,0,1,0,.527.51.51,0,0,1,.088.244.531.531,0,0,1,.375.049,1.011,1.011,0,0,1,.672,0,.68.68,0,0,1,.827.017.575.575,0,0,1,1.15.222a1.229,1.229,0,0,1,.218.69.166.166,0,0,1-.031.111l-.017.023,0,0a1.068,1.068,0,0,1-.478.42A.506.506,0,0,1,.652,1.5ZM.672.334a.678.678,0,0,0-.2.035A.212.212,0,0,0,.36.437a.18.18,0,0,0-.027.1A1,1,0,0,0,.352.731c0,.009,0,.018,0,.027l0,.009a.1.1,0,0,0,0,.017v0C.372.842.384.91.39.973a.213.213,0,0,0,.123.16.3.3,0,0,0,.138.037.178.178,0,0,0,.064-.011A.7.7,0,0,0,1.03.877.881.881,0,0,0,.892.431a.248.248,0,0,0-.14-.09A.35.35,0,0,0,.672.333Z" transform="translate(22.695 12.591)"/>
        <path id="Shape-86" data-name="Shape" d="M.587,1.493A.6.6,0,0,1,.174,1.31.55.55,0,0,1,.012.821C.021.779.026.737.032.688l0-.021C.037.647.04.625.043.6A1.331,1.331,0,0,1,.1.346.5.5,0,0,1,.264.1.53.53,0,0,1,.594,0h0a.861.861,0,0,1,.437.1.577.577,0,0,1,.249.291,1.233,1.233,0,0,1,.006.723.166.166,0,0,1-.063.1l-.011.009-.011.009a1.064,1.064,0,0,1-.581.263ZM.6.332h0A.214.214,0,0,0,.468.365a.186.186,0,0,0-.056.09A.929.929,0,0,0,.374.644C.372.658.37.675.368.7V.7C.362.755.353.824.341.886a.212.212,0,0,0,.071.189.269.269,0,0,0,.177.085H.6A.7.7,0,0,0,.98.981a.875.875,0,0,0,0-.467A.244.244,0,0,0,.87.388.544.544,0,0,0,.6.332h0Z" transform="translate(32.171 8.646)"/>
        <path id="Shape-87" data-name="Shape" d="M.633,1.484a.849.849,0,0,1-.182-.02h0a.584.584,0,0,1-.376-.305A.55.55,0,0,1,.063.645C.085.6.106.558.129.5L.141.475.155.443A1.291,1.291,0,0,1,.281.215.507.507,0,0,1,.512.029.465.465,0,0,1,.677,0,.629.629,0,0,1,.858.029a.865.865,0,0,1,.392.226A.575.575,0,0,1,1.4.606,1.23,1.23,0,0,1,1.2,1.3a.165.165,0,0,1-.089.074l-.026.01a1.279,1.279,0,0,1-.45.1ZM.677.333A.131.131,0,0,0,.63.341a.19.19,0,0,0-.079.07.981.981,0,0,0-.091.17L.437.63C.411.69.385.749.356.8A.216.216,0,0,0,.369,1a.261.261,0,0,0,.154.136.525.525,0,0,0,.112.012.925.925,0,0,0,.305-.07A.872.872,0,0,0,1.073.634.245.245,0,0,0,1.007.482.544.544,0,0,0,.762.348.3.3,0,0,0,.677.333Z" transform="translate(42.348 7.658)"/>
        <path id="Shape-88" data-name="Shape" d="M.749,1.468a.92.92,0,0,1-.468-.113A.587.587,0,0,1,.01.953.547.547,0,0,1,.148.459C.179.428.207.4.24.357L.252.343.275.318.3.293A1.3,1.3,0,0,1,.484.111.506.506,0,0,1,.759,0H.787a.546.546,0,0,1,.3.1A.863.863,0,0,1,1.4.433a.576.576,0,0,1,.044.38,1.232,1.232,0,0,1-.4.6.165.165,0,0,1-.107.045l-.028,0C.858,1.465.8,1.468.749,1.468ZM.787.333H.78a.187.187,0,0,0-.1.044A.966.966,0,0,0,.547.513L.512.552C.471.6.428.65.383.694a.215.215,0,0,0-.047.2.26.26,0,0,0,.108.175.567.567,0,0,0,.3.069c.03,0,.064,0,.112,0A.865.865,0,0,0,1.118.743.241.241,0,0,0,1.1.578a.549.549,0,0,0-.195-.2A.227.227,0,0,0,.787.333Z" transform="translate(52.376 9.749)"/>
        <path id="Shape-89" data-name="Shape" d="M.773,1.464a.166.166,0,0,1-.044-.006L.7,1.451h0a1.065,1.065,0,0,1-.564-.3A.588.588,0,0,1,0,.688.55.55,0,0,1,.288.26C.331.238.372.213.419.185l0,0L.479.148A1.3,1.3,0,0,1,.713.033.561.561,0,0,1,.9,0,.451.451,0,0,1,1.01.014a.536.536,0,0,1,.284.2.867.867,0,0,1,.192.41A.573.573,0,0,1,1.41,1a1.234,1.234,0,0,1-.566.451.168.168,0,0,1-.071.016ZM.9.333A.237.237,0,0,0,.822.348.963.963,0,0,0,.65.435L.6.462.6.468h0C.546.5.491.531.439.557A.214.214,0,0,0,.334.729a.262.262,0,0,0,.048.2.7.7,0,0,0,.374.192A.864.864,0,0,0,1.122.83.244.244,0,0,0,1.155.668a.545.545,0,0,0-.124-.25.21.21,0,0,0-.1-.082A.12.12,0,0,0,.9.333Z" transform="translate(61.348 14.742)"/>
        <path id="Shape-90" data-name="Shape" d="M.614,1.393a.164.164,0,0,1-.088-.026L.513,1.36.5,1.353A1.077,1.077,0,0,1,.047.9h0A.585.585,0,0,1,.056.418a.547.547,0,0,1,.4-.326C.5.084.549.073.6.058h0L.641.049.67.042A1.308,1.308,0,0,1,.927,0H.951a.494.494,0,0,1,.264.069.53.53,0,0,1,.213.272.864.864,0,0,1,.064.449.578.578,0,0,1-.182.337,1.226,1.226,0,0,1-.672.265l-.025,0ZM.952.333H.939A.978.978,0,0,0,.748.366L.7.379l-.009,0C.632.4.569.411.509.421a.214.214,0,0,0-.15.133A.261.261,0,0,0,.347.759a.7.7,0,0,0,.3.293.868.868,0,0,0,.435-.17A.243.243,0,0,0,1.164.737.544.544,0,0,0,1.118.462.208.208,0,0,0,1.043.353.174.174,0,0,0,.952.333Z" transform="translate(68.47 22.187)"/>
        <path id="Shape-91" data-name="Shape" d="M.733,1.325A2.012,2.012,0,0,1,.43,1.3a.168.168,0,0,1-.1-.056L.31,1.222a1.068,1.068,0,0,1-.3-.561h0A.586.586,0,0,1,.157.2.555.555,0,0,1,.569,0,.5.5,0,0,1,.633,0c.04,0,.082.007.126.01l.029,0,.046,0h.02a1.3,1.3,0,0,1,.259.035A.507.507,0,0,1,1.368.2a.527.527,0,0,1,.125.323.868.868,0,0,1-.07.447.576.576,0,0,1-.272.269.961.961,0,0,1-.418.081ZM.57.332A.222.222,0,0,0,.408.417.261.261,0,0,0,.336.61a.707.707,0,0,0,.2.369A1.565,1.565,0,0,0,.734.993.629.629,0,0,0,1,.944.245.245,0,0,0,1.123.828.555.555,0,0,0,1.16.551.216.216,0,0,0,1.119.425.187.187,0,0,0,1.026.376.969.969,0,0,0,.835.351H.769C.713.346.649.342.591.335L.57.333Z" transform="translate(73.111 31.378)"/>
        <path id="Shape-92" data-name="Shape" d="M.826,1.389a1.408,1.408,0,0,1-.6-.165.168.168,0,0,1-.079-.083.063.063,0,0,1-.007-.012L.139,1.115A1.06,1.06,0,0,1,.014.489a.585.585,0,0,1,.278-.4A.585.585,0,0,1,.6,0,.5.5,0,0,1,.8.044C.839.06.877.074.917.088L.949.1l.062.022a1.325,1.325,0,0,1,.237.109.509.509,0,0,1,.2.218A.531.531,0,0,1,1.473.8a.864.864,0,0,1-.2.407.578.578,0,0,1-.339.178.724.724,0,0,1-.11.008ZM.6.333a.254.254,0,0,0-.13.041A.264.264,0,0,0,.343.537.7.7,0,0,0,.431.949a1.025,1.025,0,0,0,.4.106.392.392,0,0,0,.059,0A.241.241,0,0,0,1.033.975.542.542,0,0,0,1.148.722a.217.217,0,0,0,0-.133A.192.192,0,0,0,1.071.514,1.04,1.04,0,0,0,.895.435L.845.417.827.411C.776.392.719.371.667.348A.167.167,0,0,0,.6.333Z" transform="translate(74.864 41.458)"/>
        <path id="Shape-93" data-name="Shape" d="M.79,1.449A.627.627,0,0,1,.7,1.443a1.235,1.235,0,0,1-.629-.356.168.168,0,0,1-.052-.1.208.208,0,0,1,0-.029A1.068,1.068,0,0,1,.078.32a.587.587,0,0,1,.382-.3A.621.621,0,0,1,.62,0,.514.514,0,0,1,.965.125c.033.028.069.056.108.085l.014.011L1.11.239l.03.023a1.272,1.272,0,0,1,.194.173A.51.51,0,0,1,1.463.7a.535.535,0,0,1-.078.338.863.863,0,0,1-.308.331.568.568,0,0,1-.287.077ZM.619.333a.3.3,0,0,0-.074.01.263.263,0,0,0-.166.12A.7.7,0,0,0,.342.882a.871.871,0,0,0,.405.231.287.287,0,0,0,.042,0A.241.241,0,0,0,.91,1.083.548.548,0,0,0,1.095.875.212.212,0,0,0,1.131.747a.181.181,0,0,0-.05-.093A.966.966,0,0,0,.937.526L.894.494C.844.457.792.418.744.375A.187.187,0,0,0,.62.333Z" transform="translate(73.562 51.615)"/>
        <path id="Shape-94" data-name="Shape" d="M.771,1.488a.58.58,0,0,1-.25-.057,1.22,1.22,0,0,1-.5-.525A.165.165,0,0,1,0,.792a.09.09,0,0,1,0-.016l0-.012A1.067,1.067,0,0,1,.254.175h0A.585.585,0,0,1,.683,0H.706a.548.548,0,0,1,.451.247c.025.041.054.08.089.128l.023.031.016.022A1.291,1.291,0,0,1,1.42.652a.511.511,0,0,1,.044.293.531.531,0,0,1-.172.3A.87.87,0,0,1,.9,1.472a.591.591,0,0,1-.131.015ZM.682.333A.251.251,0,0,0,.5.4.7.7,0,0,0,.342.79a.872.872,0,0,0,.32.339.254.254,0,0,0,.109.026.259.259,0,0,0,.056-.007A.54.54,0,0,0,1.064,1,.212.212,0,0,0,1.137.892a.188.188,0,0,0-.02-.1.967.967,0,0,0-.1-.164L1.009.614,1,.607,1,.6.984.58C.948.532.907.476.874.424a.212.212,0,0,0-.18-.09Z" transform="translate(69.263 60.938)"/>
        <path id="Shape-95" data-name="Shape" d="M.724,1.5a.429.429,0,0,1-.045,0,.579.579,0,0,1-.352-.152A1.237,1.237,0,0,1,0,.7.169.169,0,0,1,.019.587L.026.574.032.562A1.06,1.06,0,0,1,.439.07.538.538,0,0,1,.71,0,.658.658,0,0,1,.923.036.551.551,0,0,1,1.282.4c.013.048.028.094.047.148l.018.053,0,.01a1.306,1.306,0,0,1,.065.253.508.508,0,0,1-.043.294A.531.531,0,0,1,1.12,1.4a.91.91,0,0,1-.4.1ZM.712.333a.213.213,0,0,0-.1.024A.7.7,0,0,0,.344.684.87.87,0,0,0,.551,1.1.24.24,0,0,0,.7,1.169H.725A.578.578,0,0,0,.973,1.1a.206.206,0,0,0,.1-.085A.18.18,0,0,0,1.085.908.975.975,0,0,0,1.036.721L1.027.7,1.019.67C1,.611.976.548.961.489h0A.214.214,0,0,0,.815.351.311.311,0,0,0,.712.333Z" transform="translate(62.434 68.596)"/>
        <path id="Shape-96" data-name="Shape" d="M.678,1.5a.755.755,0,0,1-.285-.051.573.573,0,0,1-.287-.253A1.229,1.229,0,0,1,0,.478a.167.167,0,0,1,.049-.1l.01-.01.01-.01A1.061,1.061,0,0,1,.607.012h0A.479.479,0,0,1,.712,0a.626.626,0,0,1,.367.129A.55.55,0,0,1,1.305.59c0,.049,0,.1,0,.156V.812a1.275,1.275,0,0,1-.017.261.5.5,0,0,1-.131.266.527.527,0,0,1-.314.147A1.147,1.147,0,0,1,.678,1.5ZM.711.333a.146.146,0,0,0-.031,0A.7.7,0,0,0,.327.566.867.867,0,0,0,.4,1.027a.241.241,0,0,0,.124.111.433.433,0,0,0,.161.027A.839.839,0,0,0,.8,1.156a.218.218,0,0,0,.124-.05.192.192,0,0,0,.042-.1A.941.941,0,0,0,.973.816c0-.008,0-.016,0-.024h0V.762c0-.059,0-.128,0-.19a.213.213,0,0,0-.1-.178A.288.288,0,0,0,.711.333Z" transform="translate(53.706 73.911)"/>
        <path id="Shape-97" data-name="Shape" d="M.751,1.49a.706.706,0,0,1-.105-.008.863.863,0,0,1-.42-.169.576.576,0,0,1-.2-.326A1.241,1.241,0,0,1,.132.27.17.17,0,0,1,.209.185l.008,0L.234.172A1.121,1.121,0,0,1,.785,0,.589.589,0,0,1,.85,0h0a.588.588,0,0,1,.415.249A.55.55,0,0,1,1.348.76c-.016.046-.03.093-.046.149C1.3.928,1.29.948,1.284.972a1.319,1.319,0,0,1-.093.244.509.509,0,0,1-.2.218.488.488,0,0,1-.236.057ZM.782.333A.751.751,0,0,0,.42.45.867.867,0,0,0,.35.912a.243.243,0,0,0,.086.142.542.542,0,0,0,.26.1.35.35,0,0,0,.057,0A.158.158,0,0,0,.829,1.14.183.183,0,0,0,.9,1.06.979.979,0,0,0,.964.879l0-.016,0-.007,0-.007L.979.827.986.8l0-.008c.014-.05.029-.1.046-.149h0a.213.213,0,0,0-.04-.2A.263.263,0,0,0,.823.335l-.041,0Z" transform="translate(43.722 76.418)"/>
        <path id="Shape-98" data-name="Shape" d="M.7,1.476A.58.58,0,0,1,.45,1.413.856.856,0,0,1,.1,1.128.573.573,0,0,1,0,.758,1.226,1.226,0,0,1,.312.105a.168.168,0,0,1,.1-.059l.014,0,.014,0A1.684,1.684,0,0,1,.763,0a.852.852,0,0,1,.314.059h0A.585.585,0,0,1,1.4.42a.549.549,0,0,1-.069.51c-.028.037-.053.076-.082.12l-.005.009-.017.026-.019.029a1.3,1.3,0,0,1-.16.206.5.5,0,0,1-.257.147A.45.45,0,0,1,.7,1.476ZM.765.333a1.3,1.3,0,0,0-.23.028.871.871,0,0,0-.2.421A.246.246,0,0,0,.374.943a.54.54,0,0,0,.22.17.251.251,0,0,0,.106.03l.024,0a.18.18,0,0,0,.089-.056A.946.946,0,0,0,.931.93L.96.885c.029-.045.068-.1.107-.158a.215.215,0,0,0,.02-.2A.265.265,0,0,0,.956.369.516.516,0,0,0,.765.333Z" transform="translate(33.451 75.874)"/>
        <path id="Shape-99" data-name="Shape" d="M.553,1.41A.487.487,0,0,1,.32,1.355a.532.532,0,0,1-.227-.261A.87.87,0,0,1,.006.649.576.576,0,0,1,.17.3,1.231,1.231,0,0,1,.828,0,.161.161,0,0,1,.86,0,.166.166,0,0,1,.942.021L.966.035a1.064,1.064,0,0,1,.476.425.588.588,0,0,1,.018.486.55.55,0,0,1-.38.346c-.046.01-.092.024-.15.043l-.006,0-.057.017a1.291,1.291,0,0,1-.255.055ZM.834.342h0A.868.868,0,0,0,.409.535.245.245,0,0,0,.337.685.541.541,0,0,0,.4.957a.214.214,0,0,0,.081.105.163.163,0,0,0,.076.015h.03a.946.946,0,0,0,.188-.043L.8,1.024l.02-.006C.887,1,.947.978,1.005.966A.212.212,0,0,0,1.149.825a.257.257,0,0,0,0-.205A.707.707,0,0,0,.834.342Z" transform="translate(12.707 70.085)"/>
        <path id="Shape-100" data-name="Shape" d="M.918,1.332a.507.507,0,0,1-.079-.006C.8,1.319.754,1.315.706,1.31l-.022,0L.618,1.3a1.25,1.25,0,0,1-.257-.045A.5.5,0,0,1,.11,1.1.531.531,0,0,1,0,.772.864.864,0,0,1,.083.328.571.571,0,0,1,.365.068.912.912,0,0,1,.735,0a1.9,1.9,0,0,1,.351.037.165.165,0,0,1,.1.059L1.2.118A1.064,1.064,0,0,1,1.486.69a.588.588,0,0,1-.165.456A.559.559,0,0,1,.918,1.332Zm-.184-1A.591.591,0,0,0,.5.373.242.242,0,0,0,.377.485.542.542,0,0,0,.33.759.212.212,0,0,0,.367.887.183.183,0,0,0,.459.939.989.989,0,0,0,.649.97l.018,0L.7.975l.02,0c.05,0,.113.01.17.02L.918,1A.223.223,0,0,0,1.077.92.26.26,0,0,0,1.155.73.7.7,0,0,0,.965.354,1.471,1.471,0,0,0,.734.333Z" transform="translate(3.552 57.232)"/>
        <path id="Shape-101" data-name="Shape" d="M.874,1.419A.5.5,0,0,1,.6,1.342C.564,1.318.524,1.3.476,1.271l-.009,0L.449,1.257.409,1.235A1.249,1.249,0,0,1,.19,1.094.5.5,0,0,1,.022.85.531.531,0,0,1,.044.5.865.865,0,0,1,.3.129.573.573,0,0,1,.657,0H.669a1.241,1.241,0,0,1,.666.253A.167.167,0,0,1,1.4.347l0,.014,0,.014a1.065,1.065,0,0,1,.037.637.589.589,0,0,1-.331.356.608.608,0,0,1-.243.052ZM.662.333A.243.243,0,0,0,.506.388a.547.547,0,0,0-.15.234A.213.213,0,0,0,.34.755.183.183,0,0,0,.4.839a.963.963,0,0,0,.163.1L.58.949.614.967l0,0c.052.027.11.058.162.091a.178.178,0,0,0,.094.026.265.265,0,0,0,.107-.024A.262.262,0,0,0,1.127.918.7.7,0,0,0,1.1.5.877.877,0,0,0,.668.334Z" transform="translate(-0.003 41.773)"/>
        <path id="Shape-102" data-name="Shape" d="M.8,1.481a.538.538,0,0,1-.446-.216C.329,1.226.3,1.186.26,1.144L.218,1.093A1.314,1.314,0,0,1,.068.881.509.509,0,0,1,0,.591.532.532,0,0,1,.154.279.864.864,0,0,1,.529.026.571.571,0,0,1,.7,0,.587.587,0,0,1,.91.042,1.226,1.226,0,0,1,1.444.53a.166.166,0,0,1,.028.112.043.043,0,0,1,0,.013.087.087,0,0,0,0,.015,1.066,1.066,0,0,1-.2.6.587.587,0,0,1-.44.206ZM.7.334A.24.24,0,0,0,.626.345.545.545,0,0,0,.4.506.212.212,0,0,0,.334.622a.187.187,0,0,0,.028.1A1.04,1.04,0,0,0,.475.881L.489.9l.02.023c.034.04.081.1.119.149A.211.211,0,0,0,.8,1.148h.01A.26.26,0,0,0,1,1.069a.7.7,0,0,0,.131-.4A.865.865,0,0,0,.792.352.262.262,0,0,0,.7.333Z" transform="translate(2.654 26.136)"/>
        <path id="Shape-103" data-name="Shape" d="M.7,1.5a.648.648,0,0,1-.232-.044.549.549,0,0,1-.345-.38C.108,1.032.093.985.076.928L.068.9.057.865A1.322,1.322,0,0,1,0,.61.5.5,0,0,1,.055.318.53.53,0,0,1,.315.091.924.924,0,0,1,.691,0,.64.64,0,0,1,.76,0a.575.575,0,0,1,.346.164,1.231,1.231,0,0,1,.3.658A.17.17,0,0,1,1.387.94l0,.007-.01.018h0a1.063,1.063,0,0,1-.423.476A.53.53,0,0,1,.7,1.5ZM.691.333A.6.6,0,0,0,.452.4a.21.21,0,0,0-.1.082.188.188,0,0,0-.015.1A1,1,0,0,0,.376.771L.385.8l.006.02c.017.054.038.121.052.184a.215.215,0,0,0,.141.144A.314.314,0,0,0,.7,1.171.2.2,0,0,0,.79,1.149.7.7,0,0,0,1.066.832.861.861,0,0,0,.874.407.243.243,0,0,0,.725.335Z" transform="translate(11.124 12.721)"/>
        <path id="Shape-104" data-name="Shape" d="M.589,1.494a.607.607,0,0,1-.4-.169A.55.55,0,0,1,.009.842C.016.795.021.747.025.686c0-.007,0-.015,0-.022s0-.028,0-.043A1.319,1.319,0,0,1,.075.364.5.5,0,0,1,.234.113.534.534,0,0,1,.561,0h.05a.832.832,0,0,1,.4.087.579.579,0,0,1,.259.282,1.237,1.237,0,0,1,.031.723.168.168,0,0,1-.059.1l-.022.017a1.069,1.069,0,0,1-.573.284l-.054,0ZM.612.333H.574A.214.214,0,0,0,.446.369.186.186,0,0,0,.394.461a1,1,0,0,0-.031.19q0,.017,0,.035V.709C.354.768.348.833.338.894a.216.216,0,0,0,.078.186.27.27,0,0,0,.175.079H.605A.7.7,0,0,0,.979.968.864.864,0,0,0,.959.5.244.244,0,0,0,.848.379.509.509,0,0,0,.612.333Z" transform="translate(24.043 3.553)"/>
        <path id="Shape-105" data-name="Shape" d="M.646,1.481a.847.847,0,0,1-.24-.035.585.585,0,0,1-.356-.331A.549.549,0,0,1,.074.6C.1.56.124.516.151.465L.17.431.183.407A1.274,1.274,0,0,1,.324.188.51.51,0,0,1,.568.02.458.458,0,0,1,.7,0,.606.606,0,0,1,.913.043.865.865,0,0,1,1.289.3a.576.576,0,0,1,.129.361,1.232,1.232,0,0,1-.253.677A.169.169,0,0,1,1.07,1.4l-.006,0-.02.006h0a1.425,1.425,0,0,1-.4.071ZM.7.334a.127.127,0,0,0-.036,0A.189.189,0,0,0,.579.4a1,1,0,0,0-.1.163L.462.591.454.608l0,0L.44.633l0,0C.412.685.386.733.358.778a.215.215,0,0,0,0,.2A.261.261,0,0,0,.5,1.126a.514.514,0,0,0,.145.021A1.02,1.02,0,0,0,.92,1.1.876.876,0,0,0,1.085.66.246.246,0,0,0,1.029.5.542.542,0,0,0,.8.354.28.28,0,0,0,.7.333Z" transform="translate(39.405 0)"/>
        <path id="Shape-106" data-name="Shape" d="M.855,1.473H.836l-.026,0a1.064,1.064,0,0,1-.6-.2A.589.589,0,0,1,0,.825.549.549,0,0,1,.214.358C.25.332.283.3.322.272L.336.26.372.23.386.218A1.278,1.278,0,0,1,.6.067.521.521,0,0,1,.847,0,.3.3,0,0,1,.889,0,.533.533,0,0,1,1.2.153a.863.863,0,0,1,.253.376.579.579,0,0,1-.016.383,1.232,1.232,0,0,1-.488.534.167.167,0,0,1-.094.028ZM.848.333A.2.2,0,0,0,.755.362.932.932,0,0,0,.6.474L.576.493.558.509C.512.548.461.591.41.627A.214.214,0,0,0,.332.813.262.262,0,0,0,.411,1a.7.7,0,0,0,.4.131A.87.87,0,0,0,1.127.791.245.245,0,0,0,1.135.625.539.539,0,0,0,.973.4.21.21,0,0,0,.858.334Z" transform="translate(54.968 2.658)"/>
        <path id="Shape-107" data-name="Shape" d="M.643,1.41a.166.166,0,0,1-.081-.021L.546,1.381l-.009,0h0A1.063,1.063,0,0,1,.061.952h0A.588.588,0,0,1,.043.465.55.55,0,0,1,.423.119C.472.108.521.093.573.077L.636.057A1.288,1.288,0,0,1,.891,0,.424.424,0,0,1,.95,0a.483.483,0,0,1,.233.056A.531.531,0,0,1,1.41.316.868.868,0,0,1,1.5.761a.578.578,0,0,1-.164.346,1.226,1.226,0,0,1-.657.3.169.169,0,0,1-.033,0ZM.95.333H.92A.954.954,0,0,0,.732.377L.681.393h0C.621.411.558.431.5.444A.215.215,0,0,0,.353.586a.261.261,0,0,0,0,.205.7.7,0,0,0,.316.277A.864.864,0,0,0,1.093.875a.241.241,0,0,0,.073-.15A.537.537,0,0,0,1.107.453a.211.211,0,0,0-.082-.1A.154.154,0,0,0,.95.333Z" transform="translate(68.35 11.133)"/>
        <path id="Shape-108" data-name="Shape" d="M.757,1.332A1.913,1.913,0,0,1,.4,1.3a.167.167,0,0,1-.1-.059L.288,1.214A1.071,1.071,0,0,1,0,.64.587.587,0,0,1,.171.184.56.56,0,0,1,.573,0,.5.5,0,0,1,.652.007C.7.014.746.018.807.023h.01L.872.028A1.3,1.3,0,0,1,1.13.072a.511.511,0,0,1,.25.158.528.528,0,0,1,.113.327A.865.865,0,0,1,1.407,1a.577.577,0,0,1-.28.26.915.915,0,0,1-.37.068Zm-.184-1a.224.224,0,0,0-.16.079A.263.263,0,0,0,.336.6a.7.7,0,0,0,.19.376A1.465,1.465,0,0,0,.758,1,.582.582,0,0,0,.992.96.246.246,0,0,0,1.115.849.549.549,0,0,0,1.161.574.21.21,0,0,0,1.125.446.187.187,0,0,0,1.033.393.945.945,0,0,0,.843.363L.79.358C.734.353.664.347.6.338l-.027,0Z" transform="translate(77.517 24.065)"/>
        <path id="Shape-109" data-name="Shape" d="M.82,1.42a1.241,1.241,0,0,1-.668-.253.166.166,0,0,1-.069-.094c0-.007,0-.015-.006-.022V1.044A1.065,1.065,0,0,1,.039.408.586.586,0,0,1,.37.053.6.6,0,0,1,.613,0,.5.5,0,0,1,.883.077C.921.1.962.123,1.005.146l.014.008.036.019.022.012A1.267,1.267,0,0,1,1.3.325a.5.5,0,0,1,.169.244.528.528,0,0,1-.024.346.859.859,0,0,1-.252.376.576.576,0,0,1-.36.129ZM.611.332A.265.265,0,0,0,.5.356.263.263,0,0,0,.359.5a.706.706,0,0,0,.029.42.882.882,0,0,0,.433.166h0A.247.247,0,0,0,.98,1.032.544.544,0,0,0,1.132.8.21.21,0,0,0,1.147.665.187.187,0,0,0,1.083.581.943.943,0,0,0,.92.477l-.006,0L.9.467.873.453.849.44C.8.415.752.388.706.359a.178.178,0,0,0-.1-.026Z" transform="translate(81.077 39.437)"/>
        <path id="Shape-110" data-name="Shape" d="M.777,1.48a.6.6,0,0,1-.215-.041A1.23,1.23,0,0,1,.029.95.163.163,0,0,1,0,.839.044.044,0,0,1,0,.826.094.094,0,0,0,0,.81v0a1.068,1.068,0,0,1,.2-.6A.583.583,0,0,1,.648,0h.02a.54.54,0,0,1,.447.215c.025.034.051.066.082.1l.016.02,0,.006.037.044A1.263,1.263,0,0,1,1.405.6.5.5,0,0,1,1.47.889a.534.534,0,0,1-.151.311.866.866,0,0,1-.376.254.581.581,0,0,1-.167.026ZM.67.333H.659A.26.26,0,0,0,.47.412a.7.7,0,0,0-.131.4.869.869,0,0,0,.343.316.256.256,0,0,0,.093.017.247.247,0,0,0,.072-.011A.539.539,0,0,0,1.075.974.209.209,0,0,0,1.139.858a.183.183,0,0,0-.027-.1A.981.981,0,0,0,1,.6L.981.578h0L.964.559.949.541h0C.914.5.878.455.846.41A.21.21,0,0,0,.67.332Z" transform="translate(78.433 55.013)"/>
        <path id="Shape-111" data-name="Shape" d="M.717,1.5a.645.645,0,0,1-.068,0A.576.576,0,0,1,.3,1.335,1.229,1.229,0,0,1,0,.677.165.165,0,0,1,.021.563L.028.55.035.538A1.073,1.073,0,0,1,.459.061h0A.531.531,0,0,1,.712,0,.653.653,0,0,1,.944.044.55.55,0,0,1,1.29.424c.011.048.025.095.043.15l.006.02c0,.014.009.028.013.044a1.229,1.229,0,0,1,.055.255.5.5,0,0,1-.053.292.533.533,0,0,1-.261.228A.925.925,0,0,1,.717,1.5Zm0-1.17a.205.205,0,0,0-.095.02A.706.706,0,0,0,.342.669.866.866,0,0,0,.534,1.1a.246.246,0,0,0,.15.072l.034,0a.6.6,0,0,0,.237-.061.213.213,0,0,0,.1-.082.183.183,0,0,0,.014-.1A1.041,1.041,0,0,0,1.032.733L1.019.693v0l0-.006C1,.624.978.559.964.5A.213.213,0,0,0,.822.355.305.305,0,0,0,.714.333Z" transform="translate(70.028 68.405)"/>
        <path id="Shape-112" data-name="Shape" d="M.716,1.494a.823.823,0,0,1-.393-.086.573.573,0,0,1-.259-.282A1.228,1.228,0,0,1,.032.4.165.165,0,0,1,.091.3L.1.3.114.286A1.065,1.065,0,0,1,.685,0h0L.738,0a.61.61,0,0,1,.4.169A.55.55,0,0,1,1.32.651C1.313.693,1.309.737,1.3.784l0,.023c0,.021,0,.044-.005.065a1.268,1.268,0,0,1-.044.257.506.506,0,0,1-.158.251.528.528,0,0,1-.327.113ZM.738.334H.724A.7.7,0,0,0,.348.524a.866.866,0,0,0,.02.467.245.245,0,0,0,.112.123.512.512,0,0,0,.239.047H.754a.218.218,0,0,0,.127-.037.183.183,0,0,0,.053-.092A1,1,0,0,0,.965.842c0-.017,0-.035,0-.053C.974.729.98.661.99.6A.213.213,0,0,0,.912.412.272.272,0,0,0,.738.334Z" transform="translate(57.189 77.582)"/>
        <path id="Shape-113" data-name="Shape" d="M.718,1.481A.605.605,0,0,1,.5,1.439h0a.859.859,0,0,1-.376-.253A.575.575,0,0,1,0,.825,1.226,1.226,0,0,1,.253.148.165.165,0,0,1,.346.079l.014,0,.014,0h0A1.421,1.421,0,0,1,.771,0a.843.843,0,0,1,.239.035.588.588,0,0,1,.356.331A.551.551,0,0,1,1.342.88C1.319.917,1.3.957,1.274,1l-.009.016-.008.014-.024.044a1.228,1.228,0,0,1-.141.219.507.507,0,0,1-.244.17.455.455,0,0,1-.131.018ZM.771.333A1.021,1.021,0,0,0,.5.384.863.863,0,0,0,.332.821.243.243,0,0,0,.387.977a.545.545,0,0,0,.235.15.277.277,0,0,0,.1.021.13.13,0,0,0,.036,0,.184.184,0,0,0,.084-.064.915.915,0,0,0,.1-.163L.951.9l0-.008L.966.87v0C.995.816,1.027.756,1.06.7a.216.216,0,0,0,0-.2A.263.263,0,0,0,.917.356.514.514,0,0,0,.771.333Z" transform="translate(41.738 81.148)"/>
      </g>
      <path id="Shape-114" data-name="Shape" d="M11.139,5.983a37.966,37.966,0,0,0,2.446-4.3c1.49-3.025,3.946-1.017,6-1.117,4.6-.224,9.331,1.928,13.327,3.9,1.548.765,3.43,2.074,5.153,2.505,3.488.876,6.7-.025,8.037,4.281.728,2.351-1.178,3.771-1.317,5.971-.243,3.845.586,11-1.761,14.361-1.792,2.564-4.2,5.073-5.536,7.889-1.882,3.963-2.96,7.971-6.618,10.818a8.922,8.922,0,0,1-7.388,2.181c-2.062-.33-4.693-.368-6.636-1.161a16.256,16.256,0,0,1-7.3-5.708C7.852,43.11,6.819,40.454,4.8,38.186,3.11,36.3-.4,34,.037,31.082c.248-1.668,1.516-3.08,2.239-4.55,1.128-2.29-.623-3.908-.364-6.206C2.42,15.823,8.695,9.65,11.139,5.983Z" transform="translate(61.889 99.852)" fill="#e2e2e2"/>
      <path id="Shape-115" data-name="Shape" d="M23.05,92.67C16,90.684,16.036,89.462,9.578,86.087a16.844,16.844,0,0,1-4.106-2.768c-1.241-1.181-1.947-3.8-2.929-5.162-6.776-9.385,1.688-21.852,5.7-30.2C13.2,37.648,17.664,27.142,23.133,17.008A92.391,92.391,0,0,1,32.2,3.492C33.819,1.476,35.509.079,38.119.008a38.87,38.87,0,0,1,7.142.624c2.592.415,4.967,1.958,7.477,2.3,3.874.536,7.984,3.162,10.7,5.888,4.785,4.8,4.274,6.553,1.448,12.6C59.759,32.4,54.08,43.059,48.6,53.872c-2.549,5.03-5.067,10.354-7.2,15.571-2.333,5.7-6.12,10.689-9.162,16.02C30.015,89.353,28.144,94.106,23.05,92.67Z" transform="translate(32.032 56.946)" fill="#eee"/>
      <path id="Shape-116" data-name="Shape" d="M.679,23.072C4.111,15.3,7.181,12.955,11.754,6.829,13.762,4.138,13.7.585,17.016.053c2.153-.345,5.141,1.063,6.967,1.965,6.322,3.128,13.178,5.73,18.8,10.07,7.65,5.9,17.731,7.682,24.949,14.316,3.124,2.872,13.793,11.191,10.552,17.781l-.1.212c-3.955,8.04-7.148,14.536-14.51,19.216-6.85,4.355-13.1-1.053-18.669-3.805-6.414-3.173-12.338-7.09-18.752-10.263-3.579-1.77-6.7-4.242-10.233-6.049-3.354-1.716-7.927-2.883-10.578-5.782S-1.717,28.5.679,23.072Z" transform="translate(0 116.857)" fill="#a0c5f6"/>
      <path id="Shape-117" data-name="Shape" d="M28.123,43.9c-3.969,0-7.877-1.749-11.178-3.459-1.712-.887-3.212-1.733-4.587-2.587a42.714,42.714,0,0,1-4.52-3.2,27.015,27.015,0,0,1-3.91-3.877,17.813,17.813,0,0,1-2.748-4.625A16.734,16.734,0,0,1,.05,21.331a16.092,16.092,0,0,1,.326-4.7,18.31,18.31,0,0,1,1.64-4.488A22.838,22.838,0,0,1,4.826,7.965,21.173,21.173,0,0,1,8.509,4.52a22.561,22.561,0,0,1,4.35-2.493A24.261,24.261,0,0,1,17.681.511,25.561,25.561,0,0,1,22.776,0a25.919,25.919,0,0,1,12.8,3.378c1.5.853,2.594,1.535,3.55,2.209A19.159,19.159,0,0,1,42,8.015a15.1,15.1,0,0,1,2.244,3.035,20.511,20.511,0,0,1,1.69,4.007,35.715,35.715,0,0,1,1.177,4.828,24.129,24.129,0,0,1,.342,4.619,21.005,21.005,0,0,1-2.329,9.049,16.312,16.312,0,0,1-5.429,5.859A32.766,32.766,0,0,1,32.3,43.174a11.747,11.747,0,0,1-2.085.551A12.659,12.659,0,0,1,28.123,43.9ZM22.779.59a24.942,24.942,0,0,0-4.971.5,23.662,23.662,0,0,0-4.7,1.476A21.974,21.974,0,0,0,8.871,4.992,20.566,20.566,0,0,0,5.289,8.341,22.256,22.256,0,0,0,2.555,12.4,17.71,17.71,0,0,0,.965,16.752a15.522,15.522,0,0,0-.315,4.542,16.154,16.154,0,0,0,1.09,4.641A17.22,17.22,0,0,0,4.4,30.406,26.446,26.446,0,0,0,8.223,34.2a42.139,42.139,0,0,0,4.456,3.154c1.363.846,2.85,1.685,4.547,2.564,3.235,1.677,7.059,3.391,10.9,3.391a12.051,12.051,0,0,0,1.99-.163,11.134,11.134,0,0,0,1.977-.522,32.175,32.175,0,0,0,7.254-3.69,15.73,15.73,0,0,0,5.238-5.639,20.441,20.441,0,0,0,2.267-8.8,23.551,23.551,0,0,0-.336-4.514,35.164,35.164,0,0,0-1.158-4.743,19.945,19.945,0,0,0-1.641-3.894,14.513,14.513,0,0,0-2.156-2.918,18.58,18.58,0,0,0-2.776-2.353c-.94-.663-2.02-1.335-3.5-2.178a25.306,25.306,0,0,0-12.5-3.3Z" transform="translate(83.242 93.13)"/>
    </g>
  </g>
</svg>
